<svg width="53" height="82" viewBox="0 0 53 82" fill="none" xmlns="http://www.w3.org/2000/svg">
<path d="M20.9499 1.367L20.9498 1.36156C6.5709 12.4454 4.29241 31.7139 9.64948 48.2288C15.3978 65.9498 31.5484 73.9457 49.191 74.7515C50.6143 74.8165 50.9076 72.6113 49.473 72.5458C32.7687 71.7828 18.2296 64.8 12.0757 48.4372C6.22026 32.868 8.67568 13.6307 22.3101 3.12068C22.4438 3.01478 22.5517 2.87978 22.6254 2.72595C22.6991 2.57212 22.7368 2.40352 22.7355 2.23294C22.7343 2.06236 22.6942 1.89432 22.6183 1.74157C22.5423 1.58883 22.4326 1.4554 22.2973 1.35144L22.2702 1.3316C22.0809 1.1819 21.8449 1.10345 21.6036 1.10992C21.3623 1.11639 21.1309 1.20738 20.9499 1.367Z" fill="#A8B3C1"/>
<path d="M20.2782 1.07629C5.97983 13.3611 -0.402282 34.3898 7.11654 52.0774C10.908 60.8479 17.2856 68.2526 25.3972 73.3023C33.606 78.356 41.8318 78.3226 51.0772 77.296C52.5065 77.1374 52.213 74.9326 50.7905 75.0905C46.5233 75.5643 42.34 76.1825 38.0426 75.665C33.6848 75.1401 29.4539 73.1989 25.7576 70.9232C18.3761 66.3788 12.7678 59.0139 9.1745 51.2334C1.9348 35.5571 7.78379 16.1506 19.8188 4.50617C19.9749 4.63485 20.1614 4.72122 20.3605 4.75698C20.5596 4.79275 20.7645 4.7767 20.9556 4.71038C21.1466 4.64406 21.3175 4.52971 21.4516 4.37831C21.5857 4.22691 21.6786 4.04355 21.7214 3.84587C21.8347 3.26291 21.9479 2.67991 22.0612 2.09684C22.0855 1.87982 22.0458 1.66043 21.9469 1.46571C21.8481 1.27099 21.6944 1.10944 21.5049 1.00095C21.3153 0.892469 21.0982 0.841809 20.8802 0.85519C20.6623 0.868579 20.453 0.945437 20.2782 1.07629Z" fill="#A8B3C1"/>
<path d="M14.2406 9.78434C11.7799 13.4516 10.0263 17.5466 9.07031 21.8582C7.21023 31.0744 8.688 39.3775 11.5207 48.1707C14.2006 56.4899 19.2663 63.3375 25.5646 69.3152C31.9607 75.3859 39.9754 77.6789 47.9475 80.7357C48.0788 80.9668 48.2838 81.1472 48.5297 81.2481C48.7755 81.349 49.0481 81.3647 49.3039 81.2925L49.5682 81.3693C50.9155 81.82 51.7451 79.8443 50.4006 79.3069C43.5084 76.5519 36.2937 74.7823 30.2269 70.3143C23.8337 65.5596 18.7205 59.2926 15.3459 52.0752C11.8131 44.2251 9.87668 35.6493 10.5765 27.0577C10.87 23.0111 11.9045 19.0529 13.6283 15.3802C15.0876 12.2945 18.3287 5.39907 21.9477 4.35277C23.3267 3.95402 22.4644 1.90138 21.1036 2.29485C17.8522 3.23483 15.9334 7.14417 14.2406 9.78434Z" fill="#A8B3C1"/>
<path d="M49.1803 77.4528L49.221 77.5501C49.0818 78.083 49.0101 78.63 48.8668 79.1637C48.8038 79.3621 48.752 79.5638 48.7116 79.768C48.5495 79.9569 48.4545 80.1942 48.4416 80.4428C48.4287 80.6913 48.4987 80.9372 48.6404 81.1418C48.7822 81.3464 48.9878 81.4983 49.225 81.5735C49.4623 81.6488 49.7179 81.6433 49.9516 81.5578L50.4076 81.3672C50.6786 81.2529 50.8939 81.0369 51.0074 80.7656C51.1209 80.4943 51.1234 80.1893 51.0145 79.9161L50.9738 79.8188C51.1131 79.2859 51.1847 78.7389 51.3281 78.2052C51.4381 77.7954 51.5978 77.4685 51.4184 77.0394L51.2382 76.6087C51.1198 76.3454 50.9037 76.1384 50.6356 76.0315C50.3674 75.9245 50.0682 75.926 49.8011 76.0355C49.534 76.1451 49.3199 76.3542 49.2041 76.6186C49.0882 76.8831 49.0797 77.1822 49.1803 77.4528Z" fill="#A8B3C1"/>
<path d="M0.168444 4.9759C0.236288 6.07999 0.494008 7.16411 0.930279 8.18062C1.04442 8.45169 1.26038 8.66715 1.53172 8.78065C1.80306 8.89416 2.10811 8.89665 2.38127 8.78758C4.14381 8.07884 5.9346 7.46167 7.73946 6.88909C6.62663 7.32451 5.51566 7.76479 4.40948 8.21728C4.37757 8.22781 4.34666 8.23287 4.31411 8.24648L3.85825 8.43712C3.59493 8.55552 3.38794 8.77162 3.28097 9.03979C3.17401 9.30796 3.17546 9.6072 3.28501 9.87432C3.39457 10.1414 3.60365 10.3555 3.86811 10.4714C4.13256 10.5872 4.43168 10.5957 4.70231 10.4951C9.26178 8.6126 13.8938 6.91663 18.4956 5.14286C18.0041 7.03813 17.8317 9.002 17.9855 10.9539C18.1837 14.8255 17.7344 18.9354 18.7773 22.6781C18.8322 22.8136 18.9134 22.9369 19.0162 23.0409C19.119 23.1449 19.2414 23.2274 19.3763 23.2839C19.5112 23.3403 19.656 23.3694 19.8022 23.3696C19.9484 23.3698 20.0933 23.3411 20.2283 23.285L20.4407 23.1763C20.6669 23.0824 20.856 22.9168 20.979 22.705C21.102 22.4933 21.152 22.247 21.1215 22.004L21.1744 21.7505C21.236 21.5229 21.2082 21.2805 21.0968 21.0728C20.9853 20.8652 20.7986 20.708 20.575 20.6336C20.3499 19.212 20.2373 17.7749 20.2383 16.3357C20.4718 18.1099 20.8992 19.8531 21.5127 21.5341C21.8833 22.5313 23.6205 22.3877 23.6446 21.2531C23.6944 18.9095 23.0931 16.69 22.9166 14.3612C22.7181 11.7184 22.8978 9.06084 23.4502 6.46884C23.7067 5.79632 23.8839 5.09622 23.9783 4.38269C24.1793 3.6937 24.3969 3.008 24.65 2.33038C24.727 2.12773 24.7436 1.90712 24.6978 1.69523C24.6521 1.48333 24.5459 1.28923 24.3922 1.13638C24.2385 0.983518 24.0438 0.878452 23.8317 0.833882C23.6195 0.789314 23.399 0.807147 23.1968 0.885224C23.0677 0.938586 22.9367 0.987504 22.8074 1.04053C22.6797 0.806854 22.4712 0.627706 22.2209 0.536586C21.9707 0.445465 21.6959 0.448612 21.4478 0.545431C21.3171 0.588121 21.1851 0.626533 21.0542 0.668717C18.9989 0.137959 16.4915 0.548328 14.5949 0.794086C10.0382 1.38452 5.65647 2.96501 1.12783 3.72976C0.838078 3.77366 0.576495 3.92782 0.397718 4.16004C0.218942 4.39225 0.136798 4.68455 0.168444 4.9759ZM21.3048 4.03445C21.3392 4.02089 21.3735 4.00704 21.4078 3.99341C21.5457 4.35985 21.5764 4.75797 21.4964 5.14122C21.4723 5.24416 21.4519 5.3479 21.4288 5.451C21.4067 5.53595 21.3882 5.61846 21.3588 5.70821C20.9022 6.95797 20.5088 8.22991 20.18 9.51919C20.0579 7.62326 20.4463 5.72927 21.3048 4.03445ZM8.00991 4.48629C6.19134 5.04299 4.38747 5.64674 2.60674 6.32486C2.55123 6.12935 2.50608 5.93104 2.47149 5.73077C4.33127 5.37634 6.17243 4.94051 8.00991 4.48629Z" fill="#A8B3C1"/>
</svg>
