<svg width="1400" height="850" viewBox="0 0 1400 850" fill="none" xmlns="http://www.w3.org/2000/svg">
<path fill-rule="evenodd" clip-rule="evenodd" d="M263.747 846.307H342.124L343.824 844.538V764.051L342.123 762.281H261.858V844.342L263.747 846.307ZM261.259 844.538V762.281H181.182L179.293 764.246V844.342L181.182 846.307H259.559L261.259 844.538ZM178.695 844.538V764.051L176.994 762.281H98.6171L96.728 764.246V844.342L98.6168 846.307H176.994L178.695 844.538ZM96.1297 844.538V764.051L94.4287 762.281H14.1632V844.342L16.052 846.307H94.429L96.1297 844.538ZM13.5649 844.538V762.281H-66.5126L-68.4017 764.246V844.342L-66.5129 846.307H11.8642L13.5649 844.538ZM-66.5127 846.929L-68.6068 849.108L-71 846.618L-69 844.538V764.051L-71 761.97L-69 759.89V679.403L-71 677.322L-69 675.242V594.755L-71 592.674L-69 590.593V510.107L-71 508.026L-69 505.945V425.459L-71 423.378L-69 421.297V340.811L-71 338.73L-69 336.649V256.162L-71 254.082L-69 252.001V171.514L-71 169.434L-69 167.353V86.8664L-71 84.7858L-69 82.7051V2.21832L-71 0.137695L-69 -1.94292V-82.4297L-71 -84.5104L-68.6068 -87L-66.513 -84.8217H11.8642L13.9581 -87L16.0519 -84.8217H94.4291L96.5229 -87L98.6168 -84.8217H176.994L179.088 -87L181.182 -84.8217H259.559L261.653 -87L263.747 -84.8217H342.124L344.218 -87L346.311 -84.8217H424.689L426.782 -87L428.876 -84.8217H507.253L509.347 -87L511.441 -84.8217H589.818L591.912 -87L594.006 -84.8217H672.383L674.477 -87L676.571 -84.8217H754.948L757.042 -87L759.136 -84.8217H837.299L839.393 -87L841.487 -84.8217H919.864L921.958 -87L924.052 -84.8217H1002.43L1004.52 -87L1006.62 -84.8217H1084.99L1087.09 -87L1089.18 -84.8217H1167.56L1169.65 -87L1171.75 -84.8217H1250.12L1252.22 -87L1254.31 -84.8217H1332.69L1334.78 -87L1336.88 -84.8217H1415.25L1417.35 -87L1419.44 -84.8217H1497.82L1499.91 -87L1502.01 -84.8217H1580.38L1582.48 -87L1584.57 -84.8217H1662.95L1665.04 -87L1667.14 -84.8217H1745.51L1747.61 -87L1750 -84.5104L1747.91 -82.3316V-2.04108L1750 0.137703L1747.91 2.31647V82.607L1750 84.7858L1747.91 86.9645V167.255L1750 169.434L1747.91 171.613V251.903L1750 254.082L1747.91 256.261V336.551L1750 338.73L1747.91 340.909V421.199L1750 423.378L1747.91 425.557V505.847L1750 508.026L1747.91 510.205V590.495L1750 592.674L1747.91 594.853V675.143L1750 677.322L1747.91 679.501V759.791L1750 761.97L1747.91 764.149V844.439L1750 846.618L1747.61 849.108L1745.51 846.929H1667.14L1665.04 849.108L1662.95 846.929H1584.57L1582.48 849.108L1580.38 846.929H1502.01L1499.91 849.108L1497.82 846.929H1419.44L1417.35 849.108L1415.25 846.929H1336.88L1334.78 849.108L1332.69 846.929H1254.31L1252.22 849.108L1250.12 846.929H1171.75L1169.65 849.108L1167.56 846.929H1089.18L1087.09 849.108L1084.99 846.929H1006.62L1004.52 849.108L1002.43 846.929H924.052L921.958 849.108L919.864 846.929H841.487L839.393 849.108L837.299 846.929H759.136L757.042 849.108L754.948 846.929H676.571L674.477 849.108L672.383 846.929H594.006L591.912 849.108L589.818 846.929H511.442L509.347 849.108L507.253 846.929H428.877L426.782 849.108L424.688 846.929H346.312L344.218 849.108L342.123 846.929H263.747L261.653 849.108L259.559 846.929H181.182L179.088 849.108L176.994 846.929H98.6171L96.5229 849.108L94.4288 846.929H16.0522L13.9581 849.108L11.8639 846.929H-66.5127ZM346.311 846.307H424.689L426.389 844.538V764.051L424.688 762.281H346.312L344.423 764.247V844.342L346.311 846.307ZM346.311 761.659H424.689L426.389 759.89V679.403L424.688 677.633H346.312L344.423 679.598V759.694L346.311 761.659ZM343.824 759.89V679.403L342.123 677.633H263.747L261.858 679.598V761.659H342.124L343.824 759.89ZM259.559 677.633L261.259 679.403V761.659H181.182L179.293 759.694V679.598L181.182 677.633H259.559ZM261.259 675.242L259.559 677.011H181.182L179.293 675.046V594.95L181.182 592.985H259.559L261.259 594.755V675.242ZM263.747 677.011L261.858 675.046V594.95L263.747 592.985H342.123L343.824 594.755V675.242L342.124 677.011H263.747ZM346.311 677.011L344.423 675.046V594.95L346.312 592.985H424.688L426.389 594.755V675.242L424.689 677.011H346.311ZM428.876 677.011L426.988 675.046V594.95L428.877 592.985H507.253L508.954 594.755V675.242L507.253 677.011H428.876ZM426.988 679.598L428.877 677.633H507.253L508.954 679.403V761.659H428.876L426.988 759.694V679.598ZM426.988 764.247L428.877 762.281H508.954V844.538L507.253 846.307H428.876L426.988 844.342V764.247ZM511.441 846.307L509.552 844.342V762.281H589.818L591.519 764.051V844.538L589.818 846.307H511.441ZM594.006 846.307L592.117 844.342V764.247L594.006 762.281H672.383L674.084 764.051V844.538L672.383 846.307H594.006ZM676.571 846.307L674.682 844.342V764.247L676.571 762.281H756.649V844.538L754.948 846.307H676.571ZM759.136 846.307L757.247 844.342V762.281H837.299L839.094 764.148V844.44L837.299 846.307H759.136ZM676.571 761.659H756.649V679.403L754.948 677.633H676.571L674.682 679.599V759.694L676.571 761.659ZM674.084 759.89V679.403L672.383 677.633H594.006L592.117 679.599V759.694L594.006 761.659H672.383L674.084 759.89ZM591.519 759.89V679.403L589.818 677.633H511.442L509.552 679.599V761.659H589.818L591.519 759.89ZM511.441 677.011H589.818L591.519 675.242V594.755L589.818 592.985H511.442L509.552 594.95V675.046L511.441 677.011ZM511.441 592.363H589.818L591.519 590.594V510.107L589.818 508.337H511.442L509.552 510.302V590.398L511.441 592.363ZM508.954 590.594V510.107L507.253 508.337H428.877L426.988 510.302V590.398L428.876 592.363H507.253L508.954 590.594ZM426.389 590.594V510.107L424.688 508.337H346.312L344.423 510.302V590.398L346.311 592.363H424.689L426.389 590.594ZM343.824 590.594V510.107L342.123 508.337H263.747L261.858 510.302V590.398L263.747 592.363H342.124L343.824 590.594ZM261.259 590.593V510.107L259.559 508.337H181.182L179.293 510.302V590.398L181.182 592.363H259.559L261.259 590.593ZM178.695 590.593V510.107L176.994 508.337H98.6171L96.728 510.302V590.398L98.6168 592.363H176.994L178.695 590.593ZM176.994 592.985H98.6171L96.728 594.95V675.046L98.6168 677.011H176.994L178.695 675.242V594.755L176.994 592.985ZM176.994 677.633H98.6171L96.728 679.598V759.694L98.6168 761.659H176.994L178.695 759.89V679.403L176.994 677.633ZM96.1297 759.89V679.403L94.4287 677.633H16.0523L14.1632 679.598V761.659H94.429L96.1297 759.89ZM11.8639 677.633L13.5649 679.403V761.659H-66.5129L-68.4017 759.694V679.598L-66.5126 677.633H11.8639ZM13.5649 675.242L11.8642 677.011H-66.5129L-68.4017 675.046V594.95L-66.5127 592.985H11.8639L13.5649 594.755V675.242ZM16.052 677.011L14.1632 675.046V594.95L16.0522 592.985H94.4288L96.1297 594.755V675.242L94.429 677.011H16.052ZM96.1297 590.593L94.429 592.363H16.052L14.1632 590.398V508.337H94.4287L96.1297 510.107V590.593ZM96.1297 505.945L94.429 507.715H14.1632V425.654L16.0523 423.689H94.4287L96.1297 425.459V505.945ZM98.6168 507.715L96.728 505.75V425.654L98.6172 423.689H176.994L178.695 425.459V505.945L176.994 507.715H98.6168ZM181.182 507.715L179.293 505.75V425.654L181.182 423.689H259.558L261.259 425.459V505.945L259.559 507.715H181.182ZM263.747 507.715L261.858 505.75V425.654L263.747 423.689H342.123L343.824 425.458V505.945L342.124 507.715H263.747ZM346.311 507.715L344.423 505.75V425.654L346.312 423.689H424.688L426.389 425.458V505.945L424.689 507.715H346.311ZM428.876 507.715L426.988 505.75V425.654L428.877 423.689H507.253L508.954 425.458V505.945L507.253 507.715H428.876ZM511.441 507.715L509.552 505.75V425.654L511.442 423.689H589.818L591.519 425.458V505.945L589.818 507.715H511.441ZM594.006 507.715L592.117 505.75V425.654L594.006 423.689H672.383L674.084 425.458V505.945L672.383 507.715H594.006ZM592.117 510.302L594.006 508.337H672.383L674.084 510.107V590.594L672.383 592.363H594.006L592.117 590.398V510.302ZM592.117 594.95L594.006 592.985H672.383L674.084 594.755V675.242L672.383 677.011H594.006L592.117 675.046V594.95ZM676.571 677.011L674.682 675.046V594.95L676.571 592.985H754.948L756.649 594.755V675.242L754.948 677.011H676.571ZM759.136 677.011L757.247 675.046V594.95L759.136 592.985H837.299L839.094 594.852V675.144L837.299 677.011H759.136ZM757.247 679.599L759.136 677.633H837.299L839.094 679.5V759.792L837.299 761.659H757.247V679.599ZM759.136 592.363H837.299L839.094 590.496V510.204L837.299 508.337H757.247V590.398L759.136 592.363ZM756.649 590.594V508.337H676.571L674.682 510.302V590.398L676.571 592.363H754.948L756.649 590.594ZM676.571 507.715H756.649V425.458L754.948 423.689H676.571L674.682 425.654V505.75L676.571 507.715ZM676.571 423.067H754.948L756.649 421.297V340.81L754.948 339.041H676.571L674.682 341.006V421.102L676.571 423.067ZM674.084 421.297V340.81L672.383 339.041H594.006L592.117 341.006V421.102L594.006 423.067H672.383L674.084 421.297ZM591.519 421.297V340.81L589.818 339.041H511.442L509.552 341.006V421.102L511.441 423.067H589.818L591.519 421.297ZM508.954 421.297V340.81L507.253 339.041H428.877L426.988 341.006V421.102L428.876 423.067H507.253L508.954 421.297ZM426.389 421.297V340.81L424.688 339.041H346.312L344.423 341.006V421.102L346.311 423.067H424.689L426.389 421.297ZM343.824 421.297V340.81L342.123 339.041H263.747L261.858 341.006V421.102L263.747 423.067H342.124L343.824 421.297ZM261.259 421.297V340.811L259.558 339.041H181.182L179.293 341.006V421.102L181.182 423.067H259.559L261.259 421.297ZM178.695 421.297V340.811L176.994 339.041H98.6172L96.728 341.006V421.102L98.6168 423.067H176.994L178.695 421.297ZM96.1297 421.297V340.811L94.4287 339.041H16.0523L14.1632 341.006V421.102L16.0519 423.067H94.4291L96.1297 421.297ZM13.5649 421.297V340.811L11.8638 339.041H-66.5126L-68.4017 341.006V421.102L-66.513 423.067H11.8642L13.5649 421.297ZM11.8638 423.689H-66.5126L-68.4017 425.654V505.75L-66.5129 507.715H13.5649V425.459L11.8638 423.689ZM-68.4017 510.302L-66.5126 508.337H13.5649V590.593L11.8642 592.363H-66.5129L-68.4017 590.398V510.302ZM-66.513 338.419H11.8642L13.5649 336.649V254.393H-66.5126L-68.4017 256.358V336.454L-66.513 338.419ZM-66.513 253.77H13.5649V171.514L11.8638 169.745H-66.5126L-68.4017 171.71V251.806L-66.513 253.77ZM-66.513 169.122H11.8642L13.5649 167.353V86.8663L11.8639 85.0968H-66.5126L-68.4017 87.062V167.158L-66.513 169.122ZM-66.513 84.4743H11.8642L13.5649 82.7051V0.448715H-66.5126L-68.4017 2.41397V82.5095L-66.513 84.4743ZM-66.513 -0.173691H13.5649V-82.4297L11.8639 -84.1993H-66.5126L-68.4017 -82.2341V-2.13857L-66.513 -0.173691ZM14.1632 -82.2341V-0.173691H94.4291L96.1297 -1.9429V-82.4298L94.4287 -84.1993H16.0523L14.1632 -82.2341ZM96.728 -82.2341V-2.13859L98.6168 -0.173691H176.994L178.695 -1.94289V-82.4298L176.994 -84.1993H98.6172L96.728 -82.2341ZM179.293 -82.234V-2.1386L181.182 -0.173691H261.259V-82.4298L259.559 -84.1993H181.182L179.293 -82.234ZM261.858 -82.234V-0.173691H342.124L343.824 -1.94285V-82.4298L342.123 -84.1993H263.747L261.858 -82.234ZM344.423 -82.234V-2.13864L346.311 -0.173691H424.689L426.389 -1.94285V-82.4298L424.688 -84.1993H346.312L344.423 -82.234ZM426.988 -82.234V-2.13864L428.876 -0.173691H508.954V-82.4298L507.253 -84.1993H428.877L426.988 -82.234ZM509.552 -82.234V-0.173691H589.818L591.519 -1.94285V-82.4298L589.818 -84.1993H511.442L509.552 -82.234ZM592.117 -82.234V-2.13867L594.006 -0.173691H672.383L674.084 -1.94285V-82.4298L672.383 -84.1993H594.006L592.117 -82.234ZM674.682 -82.234V-2.13867L676.571 -0.173691H756.649V-82.4299L754.948 -84.1993H676.571L674.682 -82.234ZM757.247 -82.234V-0.173691H837.299L839.094 -2.04044V-82.3322L837.299 -84.1993H759.136L757.247 -82.234ZM674.682 2.41407L676.571 0.448715H756.649V82.7053L754.948 84.4743H676.571L674.682 82.5094V2.41407ZM672.383 0.448715L674.084 2.21825V82.7052L672.383 84.4743H594.006L592.117 82.5094V2.41407L594.006 0.448715H672.383ZM589.818 0.448715L591.519 2.21825V82.7052L589.818 84.4743H511.441L509.552 82.5094V0.448715H589.818ZM508.954 82.7052V0.448715H428.877L426.988 2.41404V82.5094L428.876 84.4743H507.253L508.954 82.7052ZM507.253 85.0968H428.877L426.988 87.0621V167.157L428.876 169.122H507.253L508.954 167.353V86.8663L507.253 85.0968ZM509.552 87.0621V167.157L511.441 169.122H589.818L591.519 167.353V86.8663L589.818 85.0968H511.442L509.552 87.0621ZM592.117 87.0621V167.157L594.006 169.122H672.383L674.084 167.353V86.8663L672.383 85.0968H594.006L592.117 87.0621ZM674.682 87.0621V167.157L676.571 169.122H754.948L756.649 167.353V86.8662L754.948 85.0968H676.571L674.682 87.0621ZM757.247 87.0621V167.157L759.136 169.122H837.299L839.094 167.256V86.9639L837.299 85.0968H759.136L757.247 87.0621ZM759.136 84.4743H837.299L839.094 82.6076V2.31584L837.299 0.448715H757.247V82.5094L759.136 84.4743ZM757.247 171.71L759.136 169.745H837.299L839.094 171.612V251.904L837.299 253.77H757.247V171.71ZM754.948 169.745L756.649 171.514V253.77H676.571L674.682 251.805V171.71L676.571 169.745H754.948ZM672.383 169.745L674.084 171.514V252.001L672.383 253.77H594.006L592.117 251.805V171.71L594.006 169.745H672.383ZM589.818 169.745L591.519 171.514V252.001L589.818 253.77H511.441L509.552 251.805V171.71L511.442 169.745H589.818ZM507.253 169.745L508.954 171.514V252.001L507.253 253.77H428.876L426.988 251.806V171.71L428.877 169.745H507.253ZM424.688 169.745L426.389 171.514V252.001L424.689 253.77H346.311L344.423 251.806V171.71L346.312 169.745H424.688ZM426.389 167.353L424.689 169.122H346.311L344.423 167.157V87.0621L346.312 85.0968H424.688L426.389 86.8663V167.353ZM426.389 82.7052L424.689 84.4743H346.311L344.423 82.5094V2.41404L346.312 0.448715H424.688L426.389 2.21825V82.7052ZM342.123 0.448715L343.824 2.21825V82.7052L342.124 84.4743H263.747L261.858 82.5094V0.448715H342.123ZM261.259 82.7052V0.448715H181.182L179.293 2.414V82.5094L181.182 84.4743H259.559L261.259 82.7052ZM259.559 85.0968H181.182L179.293 87.062V167.158L181.182 169.122H259.559L261.259 167.353V86.8663L259.559 85.0968ZM261.858 87.062V167.158L263.747 169.122H342.124L343.824 167.353V86.8663L342.123 85.0968H263.747L261.858 87.062ZM342.123 169.745H263.747L261.858 171.71V251.806L263.747 253.77H342.124L343.824 252.001V171.514L342.123 169.745ZM342.123 254.393H263.747L261.858 256.358V336.454L263.747 338.419H342.124L343.824 336.649V256.162L342.123 254.393ZM344.423 256.358V336.454L346.311 338.419H424.689L426.389 336.649V256.162L424.688 254.393H346.312L344.423 256.358ZM426.988 256.358V336.454L428.876 338.419H507.253L508.954 336.649V256.162L507.253 254.393H428.877L426.988 256.358ZM509.552 256.358V336.454L511.441 338.419H589.818L591.519 336.649V256.162L589.818 254.393H511.442L509.552 256.358ZM592.117 256.358V336.454L594.006 338.419H672.383L674.084 336.649V256.162L672.383 254.393H594.006L592.117 256.358ZM674.682 256.358V336.454L676.571 338.419H754.948L756.649 336.649V254.393H676.571L674.682 256.358ZM759.136 338.419L757.247 336.454V254.393H837.299L839.094 256.26V336.552L837.299 338.419H759.136ZM757.247 341.006L759.136 339.041H837.299L839.094 340.908V421.2L837.299 423.067H759.136L757.247 421.102V341.006ZM757.247 425.654L759.136 423.689H837.299L839.094 425.556V505.848L837.299 507.715H757.247V425.654ZM261.259 336.649V256.162L259.559 254.393H181.182L179.293 256.358V336.454L181.182 338.419H259.559L261.259 336.649ZM178.695 336.649V256.162L176.994 254.393H98.6171L96.728 256.358V336.454L98.6168 338.419H176.994L178.695 336.649ZM96.1297 336.649V256.162L94.4287 254.393H14.1632V336.454L16.0519 338.419H94.4291L96.1297 336.649ZM96.1297 252.001L94.4291 253.77H14.1632V171.71L16.0523 169.745H94.4287L96.1297 171.514V252.001ZM98.6168 253.77L96.728 251.806V171.71L98.6172 169.745H176.994L178.695 171.514V252.001L176.994 253.77H98.6168ZM181.182 253.77L179.293 251.806V171.71L181.182 169.745H259.558L261.259 171.514V252.001L259.559 253.77H181.182ZM178.695 167.353L176.994 169.122H98.6168L96.728 167.158V87.062L98.6172 85.0968H176.994L178.695 86.8663V167.353ZM178.695 82.7052L176.994 84.4743H98.6168L96.728 82.5095V2.41399L98.6172 0.448715H176.994L178.695 2.21828V82.7052ZM94.4287 0.448715L96.1297 2.2183V82.7052L94.4291 84.4743H16.0519L14.1632 82.5095V0.448715H94.4287ZM14.1632 87.062L16.0523 85.0968H94.4287L96.1297 86.8663V167.353L94.4291 169.122H16.0519L14.1632 167.158V87.062ZM1250.12 846.307H1171.75L1169.95 844.439V762.281H1250.12L1251.92 764.148V844.44L1250.12 846.307ZM1169.35 762.281V844.44L1167.56 846.307H1089.18L1087.39 844.44V764.149L1089.18 762.281H1169.35ZM1086.79 764.148V844.44L1084.99 846.307H1006.62L1004.82 844.439V764.149L1006.62 762.281H1084.99L1086.79 764.148ZM1004.22 764.148V844.44L1002.43 846.307H924.052L922.257 844.439V762.281H1002.43L1004.22 764.148ZM921.659 762.281V844.44L919.864 846.307H841.487L839.692 844.439V764.149L841.487 762.281H921.659ZM1332.69 846.307H1254.31L1252.52 844.439V764.149L1254.31 762.281H1332.69L1334.48 764.148V844.44L1332.69 846.307ZM1332.69 761.659H1254.31L1252.52 759.791V679.501L1254.31 677.633H1332.69L1334.48 679.5V759.792L1332.69 761.659ZM1251.92 679.5V759.792L1250.12 761.659H1169.95V679.501L1171.75 677.633H1250.12L1251.92 679.5ZM1169.35 679.5L1167.56 677.633H1089.18L1087.39 679.501V759.792L1089.18 761.659H1169.35V679.5ZM1167.56 677.011L1169.35 675.144V594.852L1167.56 592.985H1089.18L1087.39 594.853V675.143L1089.18 677.011H1167.56ZM1169.95 675.143L1171.75 677.011H1250.12L1251.92 675.144V594.852L1250.12 592.985H1171.75L1169.95 594.853V675.143ZM1252.52 675.143L1254.31 677.011H1332.69L1334.48 675.144V594.852L1332.69 592.985H1254.31L1252.52 594.853V675.143ZM1335.08 675.143L1336.88 677.011H1415.25L1417.05 675.144V594.852L1415.25 592.985H1336.88L1335.08 594.853V675.143ZM1336.88 677.633L1335.08 679.501V759.791L1336.88 761.659H1417.05V679.5L1415.25 677.633H1336.88ZM1336.88 762.281L1335.08 764.149V844.439L1336.88 846.307H1415.25L1417.05 844.44V762.281H1336.88ZM1417.65 844.439L1419.44 846.307H1497.82L1499.61 844.44V764.148L1497.82 762.281H1417.65V844.439ZM1500.21 844.439L1502.01 846.307H1580.38L1582.18 844.44V764.148L1580.38 762.281H1502.01L1500.21 764.149V844.439ZM1582.78 844.439L1584.57 846.307H1662.95L1664.74 844.44V762.281H1584.57L1582.78 764.149V844.439ZM1665.34 844.439L1667.14 846.307H1745.51L1747.31 844.44V764.148L1745.51 762.281H1665.34V844.439ZM1745.51 761.659L1747.31 759.792V679.5L1745.51 677.633H1667.14L1665.34 679.501V761.659H1745.51ZM1745.51 677.011L1747.31 675.144V594.852L1745.51 592.985H1667.14L1665.34 594.853V675.143L1667.14 677.011H1745.51ZM1745.51 592.363L1747.31 590.496V510.204L1745.51 508.337H1665.34V590.495L1667.14 592.363H1745.51ZM1745.51 507.715L1747.31 505.848V425.556L1745.51 423.689H1667.14L1665.34 425.557V507.715H1745.51ZM1745.51 423.067L1747.31 421.2V340.908L1745.51 339.041H1667.14L1665.34 340.909V421.199L1667.14 423.067H1745.51ZM1745.51 338.419L1747.31 336.552V256.26L1745.51 254.393H1665.34V336.551L1667.14 338.419H1745.51ZM1745.51 253.771L1747.31 251.904V171.612L1745.51 169.745H1667.14L1665.34 171.613V253.771H1745.51ZM1745.51 169.122L1747.31 167.256V86.9639L1745.51 85.0968H1667.14L1665.34 86.9647V167.255L1667.14 169.122H1745.51ZM1745.51 84.4744L1747.31 82.6076V2.31584L1745.51 0.44873H1665.34V82.6068L1667.14 84.4744H1745.51ZM1745.51 -0.173683L1747.31 -2.04044V-82.3322L1745.51 -84.1993H1667.14L1665.34 -82.3314V-0.173683H1745.51ZM1664.74 -82.3323L1662.95 -84.1993H1584.57L1582.78 -82.3316V-2.04108L1584.57 -0.173683H1664.74V-82.3323ZM1582.18 -82.3322L1580.38 -84.1993H1502.01L1500.21 -82.3316V-2.04108L1502.01 -0.173683H1580.38L1582.18 -2.04044V-82.3322ZM1499.61 -82.3323L1497.82 -84.1993H1419.44L1417.65 -82.3316V-0.173683H1497.82L1499.61 -2.04031V-82.3323ZM1417.05 -82.3322L1415.25 -84.1993H1336.88L1335.08 -82.3316V-2.04108L1336.88 -0.173683H1417.05V-82.3322ZM1334.48 -82.3322L1332.69 -84.1993H1254.31L1252.52 -82.3316V-2.04108L1254.31 -0.173683H1332.69L1334.48 -2.04044V-82.3322ZM1251.92 -82.3322L1250.12 -84.1993H1171.75L1169.95 -82.3316V-0.173683H1250.12L1251.92 -2.04044V-82.3322ZM1169.35 -82.3322L1167.56 -84.1993H1089.18L1087.39 -82.3317V-2.04095L1089.18 -0.173683H1169.35V-82.3322ZM1086.79 -82.3322L1084.99 -84.1993H1006.62L1004.82 -82.3316V-2.04108L1006.62 -0.173683H1084.99L1086.79 -2.04044V-82.3322ZM1004.22 -82.3322L1002.43 -84.1993H924.052L922.257 -82.3316V-0.173683H1002.43L1004.22 -2.04044V-82.3322ZM921.659 -82.3322L919.864 -84.1993H841.487L839.692 -82.3316V-2.04108L841.487 -0.173683H921.659V-82.3322ZM841.487 0.44873L839.692 2.31647V82.607L841.487 84.4744H919.864L921.659 82.6076V0.44873H841.487ZM841.487 85.0968L839.692 86.9645V167.255L841.487 169.122H919.864L921.659 167.256V86.9639L919.864 85.0968H841.487ZM841.487 169.745L839.692 171.613V251.903L841.487 253.771H921.659V171.612L919.864 169.745H841.487ZM841.487 254.393L839.692 256.261V336.551L841.487 338.419H919.864L921.659 336.552V254.393H841.487ZM841.487 339.041L839.692 340.909V421.199L841.487 423.067H919.864L921.659 421.2V340.908L919.864 339.041H841.487ZM841.487 423.689L839.692 425.557V505.847L841.487 507.715H921.659V425.556L919.864 423.689H841.487ZM841.487 508.337L839.692 510.205V590.495L841.487 592.363H919.864L921.659 590.496V508.337H841.487ZM841.487 592.985L839.692 594.853V675.143L841.487 677.011H919.864L921.659 675.144V594.852L919.864 592.985H841.487ZM841.487 677.633L839.692 679.501V759.791L841.487 761.659H921.659V679.5L919.864 677.633H841.487ZM922.257 761.659V679.501L924.052 677.633H1002.43L1004.22 679.5V759.792L1002.43 761.659H922.257ZM1002.43 677.011H924.052L922.257 675.143V594.853L924.052 592.985H1002.43L1004.22 594.852V675.144L1002.43 677.011ZM1002.43 592.363H924.052L922.257 590.495V508.337H1002.43L1004.22 510.204V590.496L1002.43 592.363ZM1002.43 507.715L1004.22 505.848V425.556L1002.43 423.689H924.052L922.257 425.557V507.715H1002.43ZM1004.82 505.847L1006.62 507.715H1084.99L1086.79 505.848V425.556L1084.99 423.689H1006.62L1004.82 425.557V505.847ZM1006.62 508.337L1004.82 510.205V590.495L1006.62 592.363H1084.99L1086.79 590.496V510.204L1084.99 508.337H1006.62ZM1006.62 592.985L1004.82 594.853V675.143L1006.62 677.011H1084.99L1086.79 675.144V594.852L1084.99 592.985H1006.62ZM1006.62 677.633L1004.82 679.501V759.791L1006.62 761.659H1084.99L1086.79 759.792V679.5L1084.99 677.633H1006.62ZM1087.39 590.495L1089.18 592.363H1167.56L1169.35 590.496V510.204L1167.56 508.337H1089.18L1087.39 510.205V590.495ZM1169.95 590.495L1171.75 592.363H1250.12L1251.92 590.496V510.204L1250.12 508.337H1171.75L1169.95 510.205V590.495ZM1252.52 590.495L1254.31 592.363H1332.69L1334.48 590.496V510.204L1332.69 508.337H1254.31L1252.52 510.205V590.495ZM1335.08 590.495L1336.88 592.363H1415.25L1417.05 590.496V510.204L1415.25 508.337H1336.88L1335.08 510.205V590.495ZM1417.65 590.495L1419.44 592.363H1497.82L1499.61 590.496V510.204L1497.82 508.337H1419.44L1417.65 510.205V590.495ZM1419.44 592.985L1417.65 594.853V675.143L1419.44 677.011H1497.82L1499.61 675.144V594.852L1497.82 592.985H1419.44ZM1419.44 677.633L1417.65 679.501V761.659H1497.82L1499.61 759.792V679.5L1497.82 677.633H1419.44ZM1500.21 759.791L1502.01 761.659H1580.38L1582.18 759.792V679.5L1580.38 677.633H1502.01L1500.21 679.501V759.791ZM1582.78 759.791L1584.57 761.659H1664.74V679.5L1662.95 677.633H1584.57L1582.78 679.501V759.791ZM1662.95 677.011L1664.74 675.144V594.852L1662.95 592.985H1584.57L1582.78 594.853V675.143L1584.57 677.011H1662.95ZM1662.95 592.363L1664.74 590.496V508.337H1584.57L1582.78 510.205V590.495L1584.57 592.363H1662.95ZM1664.74 507.715H1584.57L1582.78 505.847V425.557L1584.57 423.689H1662.95L1664.74 425.556V507.715ZM1582.18 425.556V505.848L1580.38 507.715H1502.01L1500.21 505.847V425.557L1502.01 423.689H1580.38L1582.18 425.556ZM1502.01 508.337H1580.38L1582.18 510.204V590.496L1580.38 592.363H1502.01L1500.21 590.495V510.205L1502.01 508.337ZM1502.01 592.985H1580.38L1582.18 594.852V675.144L1580.38 677.011H1502.01L1500.21 675.143V594.853L1502.01 592.985ZM1499.61 425.556V505.848L1497.82 507.715H1419.44L1417.65 505.847V425.557L1419.44 423.689H1497.82L1499.61 425.556ZM1417.05 425.556V505.848L1415.25 507.715H1336.88L1335.08 505.847V425.557L1336.88 423.689H1415.25L1417.05 425.556ZM1334.48 425.556V505.848L1332.69 507.715H1254.31L1252.52 505.847V425.557L1254.31 423.689H1332.69L1334.48 425.556ZM1251.92 425.556V505.848L1250.12 507.715H1171.75L1169.95 505.847V425.557L1171.75 423.689H1250.12L1251.92 425.556ZM1169.35 425.556V505.848L1167.56 507.715H1089.18L1087.39 505.847V425.557L1089.18 423.689H1167.56L1169.35 425.556ZM1167.56 423.067H1089.18L1087.39 421.199V340.909L1089.18 339.041H1167.56L1169.35 340.908V421.2L1167.56 423.067ZM1086.79 340.908V421.2L1084.99 423.067H1006.62L1004.82 421.199V340.909L1006.62 339.041H1084.99L1086.79 340.908ZM1004.22 340.908V421.2L1002.43 423.067H924.052L922.257 421.199V340.909L924.052 339.041H1002.43L1004.22 340.908ZM1002.43 338.419H924.052L922.257 336.551V254.393H1002.43L1004.22 256.26V336.552L1002.43 338.419ZM1002.43 253.771L1004.22 251.904V171.612L1002.43 169.745H924.052L922.257 171.613V253.771H1002.43ZM1004.82 251.903L1006.62 253.771H1084.99L1086.79 251.904V171.612L1084.99 169.745H1006.62L1004.82 171.613V251.903ZM1006.62 254.393L1004.82 256.261V336.551L1006.62 338.419H1084.99L1086.79 336.552V256.26L1084.99 254.393H1006.62ZM1087.39 336.551L1089.18 338.419H1167.56L1169.35 336.552V256.26L1167.56 254.393H1089.18L1087.39 256.26V336.551ZM1169.95 336.551L1171.75 338.419H1250.12L1251.92 336.552V256.26L1250.12 254.393H1171.75L1169.95 256.261V336.551ZM1171.75 339.041L1169.95 340.909V421.199L1171.75 423.067H1250.12L1251.92 421.2V340.908L1250.12 339.041H1171.75ZM1252.52 421.199L1254.31 423.067H1332.69L1334.48 421.2V340.908L1332.69 339.041H1254.31L1252.52 340.909V421.199ZM1335.08 421.199L1336.88 423.067H1415.25L1417.05 421.2V340.908L1415.25 339.041H1336.88L1335.08 340.909V421.199ZM1417.65 421.199L1419.44 423.067H1497.82L1499.61 421.2V340.908L1497.82 339.041H1419.44L1417.65 340.909V421.199ZM1500.21 421.199L1502.01 423.067H1580.38L1582.18 421.2V340.908L1580.38 339.041H1502.01L1500.21 340.909V421.199ZM1582.78 421.199L1584.57 423.067H1662.95L1664.74 421.2V340.908L1662.95 339.041H1584.57L1582.78 340.909V421.199ZM1662.95 338.419L1664.74 336.552V254.393H1584.57L1582.78 256.261V336.551L1584.57 338.419H1662.95ZM1664.74 253.771H1584.57L1582.78 251.903V171.613L1584.57 169.745H1662.95L1664.74 171.612V253.771ZM1582.18 171.612V251.904L1580.38 253.771H1502.01L1500.21 251.903V171.613L1502.01 169.745H1580.38L1582.18 171.612ZM1502.01 254.393H1580.38L1582.18 256.26V336.552L1580.38 338.419H1502.01L1500.21 336.551V256.261L1502.01 254.393ZM1499.61 256.26V336.552L1497.82 338.419H1419.44L1417.65 336.551V256.261L1419.44 254.393H1497.82L1499.61 256.26ZM1417.05 256.26V336.552L1415.25 338.419H1336.88L1335.08 336.551V256.261L1336.88 254.393H1415.25L1417.05 256.26ZM1334.48 256.26V336.552L1332.69 338.419H1254.31L1252.52 336.551V256.261L1254.31 254.393H1332.69L1334.48 256.26ZM1332.69 253.771H1254.31L1252.52 251.903V171.613L1254.31 169.745H1332.69L1334.48 171.612V251.904L1332.69 253.771ZM1251.92 171.612V251.904L1250.12 253.771H1171.75L1169.95 251.903V171.613L1171.75 169.745H1250.12L1251.92 171.612ZM1169.35 171.612V251.904L1167.56 253.771H1089.18L1087.39 251.903V171.612L1089.18 169.745H1167.56L1169.35 171.612ZM1167.56 169.122H1089.18L1087.39 167.255V86.9644L1089.18 85.0968H1167.56L1169.35 86.9639V167.256L1167.56 169.122ZM1086.79 86.9639V167.256L1084.99 169.122H1006.62L1004.82 167.255V86.9645L1006.62 85.0968H1084.99L1086.79 86.9639ZM1004.22 86.9639V167.256L1002.43 169.122H924.052L922.257 167.255V86.9645L924.052 85.0968H1002.43L1004.22 86.9639ZM1002.43 84.4744H924.052L922.257 82.607V0.44873H1002.43L1004.22 2.31584V82.6076L1002.43 84.4744ZM1004.82 82.607V2.31647L1006.62 0.44873H1084.99L1086.79 2.31584V82.6076L1084.99 84.4744H1006.62L1004.82 82.607ZM1087.39 82.6071V2.31635L1089.18 0.44873H1169.35V82.6076L1167.56 84.4744H1089.18L1087.39 82.6071ZM1169.95 82.607L1171.75 84.4744H1250.12L1251.92 82.6076V2.31584L1250.12 0.44873H1169.95V82.607ZM1171.75 85.0968L1169.95 86.9645V167.255L1171.75 169.122H1250.12L1251.92 167.256V86.9639L1250.12 85.0968H1171.75ZM1252.52 167.255L1254.31 169.122H1332.69L1334.48 167.256V86.9639L1332.69 85.0968H1254.31L1252.52 86.9645V167.255ZM1335.08 167.255L1336.88 169.122H1415.25L1417.05 167.256V86.9639L1415.25 85.0968H1336.88L1335.08 86.9645V167.255ZM1336.88 169.745L1335.08 171.613V251.903L1336.88 253.771H1415.25L1417.05 251.904V171.612L1415.25 169.745H1336.88ZM1417.65 251.903L1419.44 253.771H1497.82L1499.61 251.904V171.612L1497.82 169.745H1419.44L1417.65 171.613V251.903ZM1497.82 169.122L1499.61 167.256V86.9638L1497.82 85.0968H1419.44L1417.65 86.9645V167.255L1419.44 169.122H1497.82ZM1500.21 167.255L1502.01 169.122H1580.38L1582.18 167.256V86.9639L1580.38 85.0968H1502.01L1500.21 86.9645V167.255ZM1582.78 167.255L1584.57 169.122H1662.95L1664.74 167.256V86.9638L1662.95 85.0968H1584.57L1582.78 86.9645V167.255ZM1662.95 84.4744L1664.74 82.6077V0.44873H1584.57L1582.78 2.31647V82.607L1584.57 84.4744H1662.95ZM1582.18 2.31584L1580.38 0.44873H1502.01L1500.21 2.31647V82.607L1502.01 84.4744H1580.38L1582.18 82.6076V2.31584ZM1499.61 2.31571L1497.82 0.44873H1417.65V82.607L1419.44 84.4744H1497.82L1499.61 82.6077V2.31571ZM1417.05 0.44873V82.6076L1415.25 84.4744H1336.88L1335.08 82.607V2.31647L1336.88 0.44873H1417.05ZM1334.48 2.31584V82.6076L1332.69 84.4744H1254.31L1252.52 82.607V2.31647L1254.31 0.44873H1332.69L1334.48 2.31584ZM1295.3 381.054L1293.5 379.187L1291.71 381.054L1293.5 382.921L1295.3 381.054ZM1293.5 467.569L1291.71 465.702L1293.5 463.835L1295.3 465.702L1293.5 467.569ZM1293.5 552.217L1291.71 550.35L1293.5 548.483L1295.3 550.35L1293.5 552.217ZM1293.5 636.865L1291.71 634.998L1293.5 633.131L1295.3 634.998L1293.5 636.865ZM1293.5 721.514L1291.71 719.646L1293.5 717.779L1295.3 719.646L1293.5 721.514ZM1293.5 806.162L1291.71 804.294L1293.5 802.427L1295.3 804.294L1293.5 806.162ZM1293.5 298.273L1291.71 296.406L1293.5 294.539L1295.3 296.406L1293.5 298.273ZM1293.5 213.625L1291.71 211.758L1293.5 209.891L1295.3 211.758L1293.5 213.625ZM1293.5 128.977L1291.71 127.11L1293.5 125.243L1295.3 127.11L1293.5 128.977ZM1293.5 44.3291L1291.71 42.4619L1293.5 40.5946L1295.3 42.4619L1293.5 44.3291ZM1293.5 -40.3189L1291.71 -42.1862L1293.5 -44.0534L1295.3 -42.1862L1293.5 -40.3189ZM1210.94 382.921L1209.14 381.054L1210.94 379.187L1212.73 381.054L1210.94 382.921ZM1210.94 467.569L1209.14 465.702L1210.94 463.835L1212.73 465.702L1210.94 467.569ZM1210.94 552.217L1209.14 550.35L1210.94 548.483L1212.73 550.35L1210.94 552.217ZM1210.94 636.865L1209.14 634.998L1210.94 633.131L1212.73 634.998L1210.94 636.865ZM1210.94 721.514L1209.14 719.646L1210.94 717.779L1212.73 719.646L1210.94 721.514ZM1210.94 806.162L1209.14 804.294L1210.94 802.427L1212.73 804.294L1210.94 806.162ZM1210.94 298.273L1209.14 296.406L1210.94 294.539L1212.73 296.406L1210.94 298.273ZM1210.94 213.625L1209.14 211.758L1210.94 209.891L1212.73 211.758L1210.94 213.625ZM1210.94 128.977L1209.14 127.11L1210.94 125.243L1212.73 127.11L1210.94 128.977ZM1210.94 44.3291L1209.14 42.4619L1210.94 40.5946L1212.73 42.4619L1210.94 44.3291ZM1210.94 -40.3189L1209.14 -42.1862L1210.94 -44.0534L1212.73 -42.1862L1210.94 -40.3189ZM1128.37 382.921L1126.58 381.054L1128.37 379.187L1130.17 381.054L1128.37 382.921ZM1128.37 467.569L1126.58 465.702L1128.37 463.835L1130.17 465.702L1128.37 467.569ZM1128.37 552.217L1126.58 550.35L1128.37 548.483L1130.17 550.35L1128.37 552.217ZM1128.37 636.865L1126.58 634.998L1128.37 633.131L1130.17 634.998L1128.37 636.865ZM1128.37 721.514L1126.58 719.646L1128.37 717.779L1130.17 719.646L1128.37 721.514ZM1128.37 806.162L1126.58 804.294L1128.37 802.427L1130.17 804.294L1128.37 806.162ZM1128.37 298.273L1126.58 296.406L1128.37 294.539L1130.17 296.406L1128.37 298.273ZM1128.37 213.625L1126.58 211.758L1128.37 209.891L1130.17 211.758L1128.37 213.625ZM1128.37 128.977L1126.58 127.11L1128.37 125.243L1130.17 127.11L1128.37 128.977ZM1128.37 44.3291L1126.58 42.4619L1128.37 40.5946L1130.17 42.4619L1128.37 44.3291ZM1128.37 -40.3189L1126.58 -42.1862L1128.37 -44.0534L1130.17 -42.1862L1128.37 -40.3189ZM1045.81 382.921L1044.01 381.054L1045.81 379.187L1047.6 381.054L1045.81 382.921ZM1045.81 467.569L1044.01 465.702L1045.81 463.835L1047.6 465.702L1045.81 467.569ZM1045.81 552.217L1044.01 550.35L1045.81 548.483L1047.6 550.35L1045.81 552.217ZM1045.81 636.865L1044.01 634.998L1045.81 633.131L1047.6 634.998L1045.81 636.865ZM1045.81 721.514L1044.01 719.646L1045.81 717.779L1047.6 719.646L1045.81 721.514ZM1045.81 806.162L1044.01 804.294L1045.81 802.427L1047.6 804.294L1045.81 806.162ZM1045.81 298.273L1044.01 296.406L1045.81 294.539L1047.6 296.406L1045.81 298.273ZM1045.81 213.625L1044.01 211.758L1045.81 209.891L1047.6 211.758L1045.81 213.625ZM1045.81 128.977L1044.01 127.11L1045.81 125.243L1047.6 127.11L1045.81 128.977ZM1045.81 44.3291L1044.01 42.4619L1045.81 40.5946L1047.6 42.4619L1045.81 44.3291ZM1045.81 -40.3189L1044.01 -42.1862L1045.81 -44.0534L1047.6 -42.1862L1045.81 -40.3189ZM963.241 382.921L961.446 381.054L963.241 379.187L965.036 381.054L963.241 382.921ZM963.241 467.569L961.446 465.702L963.241 463.835L965.036 465.702L963.241 467.569ZM963.241 552.217L961.446 550.35L963.241 548.483L965.036 550.35L963.241 552.217ZM963.241 636.865L961.446 634.998L963.241 633.131L965.036 634.998L963.241 636.865ZM963.241 721.514L961.446 719.646L963.241 717.779L965.036 719.646L963.241 721.514ZM963.241 806.162L961.446 804.294L963.241 802.427L965.036 804.294L963.241 806.162ZM963.241 298.273L961.446 296.406L963.241 294.539L965.036 296.406L963.241 298.273ZM963.241 213.625L961.446 211.758L963.241 209.891L965.036 211.758L963.241 213.625ZM963.241 128.977L961.446 127.11L963.241 125.243L965.036 127.11L963.241 128.977ZM963.241 44.3291L961.446 42.4619L963.241 40.5946L965.036 42.4619L963.241 44.3291ZM963.241 -40.3189L961.446 -42.1862L963.241 -44.0534L965.036 -42.1862L963.241 -40.3189ZM880.676 382.921L878.881 381.054L880.676 379.187L882.471 381.054L880.676 382.921ZM880.676 467.569L878.881 465.702L880.676 463.835L882.471 465.702L880.676 467.569ZM880.676 552.217L878.881 550.35L880.676 548.483L882.471 550.35L880.676 552.217ZM880.676 636.865L878.881 634.998L880.676 633.131L882.471 634.998L880.676 636.865ZM880.676 721.514L878.881 719.646L880.676 717.779L882.471 719.646L880.676 721.514ZM880.676 806.162L878.881 804.294L880.676 802.427L882.471 804.294L880.676 806.162ZM880.676 298.273L878.881 296.406L880.676 294.539L882.471 296.406L880.676 298.273ZM880.676 213.625L878.881 211.758L880.676 209.891L882.471 211.758L880.676 213.625ZM880.676 128.977L878.881 127.11L880.676 125.243L882.471 127.11L880.676 128.977ZM880.676 44.3291L878.881 42.4619L880.676 40.5946L882.471 42.4619L880.676 44.3291ZM880.676 -40.3189L878.881 -42.1862L880.676 -44.0534L882.471 -42.1862L880.676 -40.3189ZM1376.06 382.921L1374.27 381.054L1376.06 379.187L1377.86 381.054L1376.06 382.921ZM1376.06 467.569L1374.27 465.702L1376.06 463.835L1377.86 465.702L1376.06 467.569ZM1376.06 552.217L1374.27 550.35L1376.06 548.483L1377.86 550.35L1376.06 552.217ZM1376.06 636.865L1374.27 634.998L1376.06 633.131L1377.86 634.998L1376.06 636.865ZM1376.06 721.514L1374.27 719.646L1376.06 717.779L1377.86 719.646L1376.06 721.514ZM1376.06 806.162L1374.27 804.294L1376.06 802.427L1377.86 804.294L1376.06 806.162ZM1376.06 298.273L1374.27 296.406L1376.06 294.539L1377.86 296.406L1376.06 298.273ZM1376.06 213.625L1374.27 211.758L1376.06 209.891L1377.86 211.758L1376.06 213.625ZM1376.06 128.977L1374.27 127.11L1376.06 125.243L1377.86 127.11L1376.06 128.977ZM1376.06 44.3291L1374.27 42.4619L1376.06 40.5946L1377.86 42.4619L1376.06 44.3291ZM1376.06 -40.3189L1374.27 -42.1862L1376.06 -44.0534L1377.86 -42.1862L1376.06 -40.3189ZM1458.63 382.921L1456.83 381.054L1458.63 379.187L1460.42 381.054L1458.63 382.921ZM1458.63 467.569L1456.83 465.702L1458.63 463.835L1460.42 465.702L1458.63 467.569ZM1458.63 552.217L1456.83 550.35L1458.63 548.483L1460.42 550.35L1458.63 552.217ZM1458.63 636.865L1456.83 634.998L1458.63 633.131L1460.42 634.998L1458.63 636.865ZM1458.63 721.514L1456.83 719.646L1458.63 717.779L1460.42 719.646L1458.63 721.514ZM1458.63 806.162L1456.83 804.294L1458.63 802.427L1460.42 804.294L1458.63 806.162ZM1458.63 298.273L1456.83 296.406L1458.63 294.539L1460.42 296.406L1458.63 298.273ZM1458.63 213.625L1456.83 211.758L1458.63 209.891L1460.42 211.758L1458.63 213.625ZM1458.63 128.977L1456.83 127.11L1458.63 125.243L1460.42 127.11L1458.63 128.977ZM1458.63 44.3291L1456.83 42.4619L1458.63 40.5946L1460.42 42.4619L1458.63 44.3291ZM1458.63 -40.3189L1456.83 -42.1862L1458.63 -44.0534L1460.42 -42.1862L1458.63 -40.3189ZM1541.19 382.921L1539.4 381.054L1541.19 379.187L1542.99 381.054L1541.19 382.921ZM1541.19 467.569L1539.4 465.702L1541.19 463.835L1542.99 465.702L1541.19 467.569ZM1541.19 552.217L1539.4 550.35L1541.19 548.483L1542.99 550.35L1541.19 552.217ZM1541.19 636.865L1539.4 634.998L1541.19 633.131L1542.99 634.998L1541.19 636.865ZM1541.19 721.514L1539.4 719.646L1541.19 717.779L1542.99 719.646L1541.19 721.514ZM1541.19 806.162L1539.4 804.294L1541.19 802.427L1542.99 804.294L1541.19 806.162ZM1541.19 298.273L1539.4 296.406L1541.19 294.539L1542.99 296.406L1541.19 298.273ZM1541.19 213.625L1539.4 211.758L1541.19 209.891L1542.99 211.758L1541.19 213.625ZM1541.19 128.977L1539.4 127.11L1541.19 125.243L1542.99 127.11L1541.19 128.977ZM1541.19 44.3291L1539.4 42.4619L1541.19 40.5946L1542.99 42.4619L1541.19 44.3291ZM1541.19 -40.3189L1539.4 -42.1862L1541.19 -44.0534L1542.99 -42.1862L1541.19 -40.3189ZM1623.76 382.921L1621.96 381.054L1623.76 379.187L1625.55 381.054L1623.76 382.921ZM1623.76 467.569L1621.96 465.702L1623.76 463.835L1625.55 465.702L1623.76 467.569ZM1623.76 552.217L1621.96 550.35L1623.76 548.483L1625.55 550.35L1623.76 552.217ZM1623.76 636.865L1621.96 634.998L1623.76 633.131L1625.55 634.998L1623.76 636.865ZM1623.76 721.514L1621.96 719.646L1623.76 717.779L1625.55 719.646L1623.76 721.514ZM1623.76 806.162L1621.96 804.294L1623.76 802.427L1625.55 804.294L1623.76 806.162ZM1623.76 298.273L1621.96 296.406L1623.76 294.539L1625.55 296.406L1623.76 298.273ZM1623.76 213.625L1621.96 211.758L1623.76 209.891L1625.55 211.758L1623.76 213.625ZM1623.76 128.977L1621.96 127.11L1623.76 125.243L1625.55 127.11L1623.76 128.977ZM1623.76 44.3291L1621.96 42.4619L1623.76 40.5946L1625.55 42.4619L1623.76 44.3291ZM1623.76 -40.3189L1621.96 -42.1862L1623.76 -44.0534L1625.55 -42.1862L1623.76 -40.3189ZM1706.32 382.921L1704.53 381.054L1706.32 379.187L1708.12 381.054L1706.32 382.921ZM1706.32 467.569L1704.53 465.702L1706.32 463.835L1708.12 465.702L1706.32 467.569ZM1706.32 552.217L1704.53 550.35L1706.32 548.483L1708.12 550.35L1706.32 552.217ZM1706.32 636.865L1704.53 634.998L1706.32 633.131L1708.12 634.998L1706.32 636.865ZM1706.32 721.514L1704.53 719.646L1706.32 717.779L1708.12 719.646L1706.32 721.514ZM1706.32 806.162L1704.53 804.294L1706.32 802.427L1708.12 804.294L1706.32 806.162ZM1706.32 298.273L1704.53 296.406L1706.32 294.539L1708.12 296.406L1706.32 298.273ZM1706.32 213.625L1704.53 211.758L1706.32 209.891L1708.12 211.758L1706.32 213.625ZM1706.32 128.977L1704.53 127.11L1706.32 125.243L1708.12 127.11L1706.32 128.977ZM1706.32 44.3291L1704.53 42.4619L1706.32 40.5946L1708.12 42.4619L1706.32 44.3291ZM1706.32 -40.3189L1704.53 -42.1862L1706.32 -44.0534L1708.12 -42.1862L1706.32 -40.3189ZM385.5 379.187L387.295 381.054L385.5 382.921L383.705 381.054L385.5 379.187ZM383.705 465.702L385.5 467.569L387.295 465.702L385.5 463.835L383.705 465.702ZM383.705 550.35L385.5 552.217L387.295 550.35L385.5 548.483L383.705 550.35ZM383.705 634.998L385.5 636.865L387.295 634.998L385.5 633.131L383.705 634.998ZM383.705 719.646L385.5 721.514L387.295 719.646L385.5 717.779L383.705 719.646ZM383.705 804.294L385.5 806.162L387.295 804.294L385.5 802.427L383.705 804.294ZM383.705 296.406L385.5 298.273L387.295 296.406L385.5 294.539L383.705 296.406ZM383.705 211.758L385.5 213.625L387.295 211.758L385.5 209.891L383.705 211.758ZM383.705 127.11L385.5 128.977L387.295 127.11L385.5 125.243L383.705 127.11ZM383.705 42.4619L385.5 44.3291L387.295 42.4619L385.5 40.5946L383.705 42.4619ZM383.705 -42.1862L385.5 -40.3189L387.295 -42.1862L385.5 -44.0534L383.705 -42.1862ZM301.14 381.054L302.935 382.921L304.73 381.054L302.935 379.187L301.14 381.054ZM301.14 465.702L302.935 467.569L304.73 465.702L302.935 463.835L301.14 465.702ZM301.14 550.35L302.935 552.217L304.73 550.35L302.935 548.483L301.14 550.35ZM301.14 634.998L302.935 636.865L304.73 634.998L302.935 633.131L301.14 634.998ZM301.14 719.646L302.935 721.514L304.73 719.646L302.935 717.779L301.14 719.646ZM301.14 804.294L302.935 806.162L304.73 804.294L302.935 802.427L301.14 804.294ZM301.14 296.406L302.935 298.273L304.73 296.406L302.935 294.539L301.14 296.406ZM301.14 211.758L302.935 213.625L304.73 211.758L302.935 209.891L301.14 211.758ZM301.14 127.11L302.935 128.977L304.73 127.11L302.935 125.243L301.14 127.11ZM301.14 42.4619L302.935 44.3291L304.73 42.4619L302.935 40.5946L301.14 42.4619ZM301.14 -42.1862L302.935 -40.3189L304.73 -42.1862L302.935 -44.0534L301.14 -42.1862ZM218.575 381.054L220.37 382.921L222.165 381.054L220.37 379.187L218.575 381.054ZM218.575 465.702L220.37 467.569L222.165 465.702L220.37 463.835L218.575 465.702ZM218.575 550.35L220.37 552.217L222.165 550.35L220.37 548.483L218.575 550.35ZM218.575 634.998L220.37 636.865L222.165 634.998L220.37 633.131L218.575 634.998ZM218.575 719.646L220.37 721.514L222.165 719.646L220.37 717.779L218.575 719.646ZM218.575 804.294L220.37 806.162L222.165 804.294L220.37 802.427L218.575 804.294ZM218.575 296.406L220.37 298.273L222.165 296.406L220.37 294.539L218.575 296.406ZM218.575 211.758L220.37 213.625L222.165 211.758L220.37 209.891L218.575 211.758ZM218.575 127.11L220.37 128.977L222.165 127.11L220.37 125.243L218.575 127.11ZM218.575 42.4619L220.37 44.3291L222.165 42.4619L220.37 40.5946L218.575 42.4619ZM218.575 -42.1862L220.37 -40.3189L222.165 -42.1862L220.37 -44.0534L218.575 -42.1862ZM136.011 381.054L137.805 382.921L139.6 381.054L137.805 379.187L136.011 381.054ZM136.011 465.702L137.805 467.569L139.6 465.702L137.805 463.835L136.011 465.702ZM136.011 550.35L137.805 552.217L139.6 550.35L137.805 548.483L136.011 550.35ZM136.011 634.998L137.805 636.865L139.6 634.998L137.805 633.131L136.011 634.998ZM136.011 719.646L137.805 721.514L139.6 719.646L137.805 717.779L136.011 719.646ZM136.011 804.294L137.805 806.162L139.6 804.294L137.805 802.427L136.011 804.294ZM136.011 296.406L137.805 298.273L139.6 296.406L137.805 294.539L136.011 296.406ZM136.011 211.758L137.805 213.625L139.6 211.758L137.805 209.891L136.011 211.758ZM136.011 127.11L137.805 128.977L139.6 127.11L137.805 125.243L136.011 127.11ZM136.011 42.4619L137.805 44.3291L139.6 42.4619L137.805 40.5946L136.011 42.4619ZM136.011 -42.1862L137.805 -40.3189L139.6 -42.1862L137.805 -44.0534L136.011 -42.1862ZM53.4457 381.054L55.2406 382.921L57.0355 381.054L55.2406 379.187L53.4457 381.054ZM53.4457 465.702L55.2406 467.569L57.0355 465.702L55.2406 463.835L53.4457 465.702ZM53.4457 550.35L55.2406 552.217L57.0355 550.35L55.2406 548.483L53.4457 550.35ZM53.4457 634.998L55.2406 636.865L57.0355 634.998L55.2406 633.131L53.4457 634.998ZM53.4457 719.646L55.2406 721.514L57.0355 719.646L55.2406 717.779L53.4457 719.646ZM53.4457 804.294L55.2406 806.162L57.0355 804.294L55.2406 802.427L53.4457 804.294ZM53.4457 296.406L55.2406 298.273L57.0355 296.406L55.2406 294.539L53.4457 296.406ZM53.4457 211.758L55.2406 213.625L57.0355 211.758L55.2406 209.891L53.4457 211.758ZM53.4457 127.11L55.2406 128.977L57.0355 127.11L55.2406 125.243L53.4457 127.11ZM53.4457 42.4619L55.2406 44.3291L57.0355 42.4619L55.2406 40.5946L53.4457 42.4619ZM53.4457 -42.1862L55.2406 -40.3189L57.0355 -42.1862L55.2406 -44.0534L53.4457 -42.1862ZM-29.1191 381.054L-27.3243 382.921L-25.5294 381.054L-27.3243 379.187L-29.1191 381.054ZM-29.1191 465.702L-27.3243 467.569L-25.5294 465.702L-27.3243 463.835L-29.1191 465.702ZM-29.1191 550.35L-27.3243 552.217L-25.5294 550.35L-27.3243 548.483L-29.1191 550.35ZM-29.1191 634.998L-27.3243 636.865L-25.5294 634.998L-27.3243 633.131L-29.1191 634.998ZM-29.1191 719.646L-27.3243 721.514L-25.5294 719.646L-27.3243 717.779L-29.1191 719.646ZM-29.1191 804.294L-27.3243 806.162L-25.5294 804.294L-27.3243 802.427L-29.1191 804.294ZM-29.1191 296.406L-27.3243 298.273L-25.5294 296.406L-27.3243 294.539L-29.1191 296.406ZM-29.1191 211.758L-27.3243 213.625L-25.5294 211.758L-27.3243 209.891L-29.1191 211.758ZM-29.1191 127.11L-27.3243 128.977L-25.5294 127.11L-27.3243 125.243L-29.1191 127.11ZM-29.1191 42.4619L-27.3243 44.3291L-25.5294 42.4619L-27.3243 40.5946L-29.1191 42.4619ZM-29.1191 -42.1862L-27.3243 -40.3189L-25.5294 -42.1862L-27.3243 -44.0534L-29.1191 -42.1862ZM466.27 381.054L468.065 382.921L469.86 381.054L468.065 379.187L466.27 381.054ZM466.27 465.702L468.065 467.569L469.86 465.702L468.065 463.835L466.27 465.702ZM466.27 550.35L468.065 552.217L469.86 550.35L468.065 548.483L466.27 550.35ZM466.27 634.998L468.065 636.865L469.86 634.998L468.065 633.131L466.27 634.998ZM466.27 719.646L468.065 721.514L469.86 719.646L468.065 717.779L466.27 719.646ZM466.27 804.294L468.065 806.162L469.86 804.294L468.065 802.427L466.27 804.294ZM466.27 296.406L468.065 298.273L469.86 296.406L468.065 294.539L466.27 296.406ZM466.27 211.758L468.065 213.625L469.86 211.758L468.065 209.891L466.27 211.758ZM466.27 127.11L468.065 128.977L469.86 127.11L468.065 125.243L466.27 127.11ZM466.27 42.4619L468.065 44.3291L469.86 42.4619L468.065 40.5946L466.27 42.4619ZM466.27 -42.1862L468.065 -40.3189L469.86 -42.1862L468.065 -44.0534L466.27 -42.1862ZM548.835 381.054L550.63 382.921L552.425 381.054L550.63 379.187L548.835 381.054ZM548.835 465.702L550.63 467.569L552.425 465.702L550.63 463.835L548.835 465.702ZM548.835 550.35L550.63 552.217L552.425 550.35L550.63 548.483L548.835 550.35ZM548.835 634.998L550.63 636.865L552.425 634.998L550.63 633.131L548.835 634.998ZM548.835 719.646L550.63 721.514L552.425 719.646L550.63 717.779L548.835 719.646ZM548.835 804.294L550.63 806.162L552.425 804.294L550.63 802.427L548.835 804.294ZM548.835 296.406L550.63 298.273L552.425 296.406L550.63 294.539L548.835 296.406ZM548.835 211.758L550.63 213.625L552.425 211.758L550.63 209.891L548.835 211.758ZM548.835 127.11L550.63 128.977L552.425 127.11L550.63 125.243L548.835 127.11ZM548.835 42.4619L550.63 44.3291L552.425 42.4619L550.63 40.5946L548.835 42.4619ZM548.835 -42.1862L550.63 -40.3189L552.425 -42.1862L550.63 -44.0534L548.835 -42.1862ZM631.4 381.054L633.195 382.921L634.99 381.054L633.195 379.187L631.4 381.054ZM631.4 465.702L633.195 467.569L634.99 465.702L633.195 463.835L631.4 465.702ZM631.4 550.35L633.195 552.217L634.99 550.35L633.195 548.483L631.4 550.35ZM631.4 634.998L633.195 636.865L634.99 634.998L633.195 633.131L631.4 634.998ZM631.4 719.646L633.195 721.514L634.99 719.646L633.195 717.779L631.4 719.646ZM631.4 804.294L633.195 806.162L634.99 804.294L633.195 802.427L631.4 804.294ZM631.4 296.406L633.195 298.273L634.99 296.406L633.195 294.539L631.4 296.406ZM631.4 211.758L633.195 213.625L634.99 211.758L633.195 209.891L631.4 211.758ZM631.4 127.11L633.195 128.977L634.99 127.11L633.195 125.243L631.4 127.11ZM631.4 42.4619L633.195 44.3291L634.99 42.4619L633.195 40.5946L631.4 42.4619ZM631.4 -42.1862L633.195 -40.3189L634.99 -42.1862L633.195 -44.0534L631.4 -42.1862ZM713.965 381.054L715.76 382.921L717.554 381.054L715.76 379.187L713.965 381.054ZM713.965 465.702L715.76 467.569L717.554 465.702L715.76 463.835L713.965 465.702ZM713.965 550.35L715.76 552.217L717.554 550.35L715.76 548.483L713.965 550.35ZM713.965 634.998L715.76 636.865L717.554 634.998L715.76 633.131L713.965 634.998ZM713.965 719.646L715.76 721.514L717.554 719.646L715.76 717.779L713.965 719.646ZM713.965 804.294L715.76 806.162L717.554 804.294L715.76 802.427L713.965 804.294ZM713.965 296.406L715.76 298.273L717.554 296.406L715.76 294.539L713.965 296.406ZM713.965 211.758L715.76 213.625L717.554 211.758L715.76 209.891L713.965 211.758ZM713.965 127.11L715.76 128.977L717.554 127.11L715.76 125.243L713.965 127.11ZM713.965 42.4619L715.76 44.3291L717.554 42.4619L715.76 40.5946L713.965 42.4619ZM713.965 -42.1862L715.76 -40.3189L717.554 -42.1862L715.76 -44.0534L713.965 -42.1862ZM796.53 381.054L798.324 382.921L800.119 381.054L798.324 379.187L796.53 381.054ZM796.53 465.702L798.324 467.569L800.119 465.702L798.324 463.835L796.53 465.702ZM796.53 550.35L798.324 552.217L800.119 550.35L798.324 548.483L796.53 550.35ZM796.53 634.998L798.324 636.865L800.119 634.998L798.324 633.131L796.53 634.998ZM796.53 719.646L798.324 721.514L800.119 719.646L798.324 717.779L796.53 719.646ZM796.53 804.294L798.324 806.162L800.119 804.294L798.324 802.427L796.53 804.294ZM796.53 296.406L798.324 298.273L800.119 296.406L798.324 294.539L796.53 296.406ZM796.53 211.758L798.324 213.625L800.119 211.758L798.324 209.891L796.53 211.758ZM796.53 127.11L798.324 128.977L800.119 127.11L798.324 125.243L796.53 127.11ZM796.53 42.4619L798.324 44.3291L800.119 42.4619L798.324 40.5946L796.53 42.4619ZM796.53 -42.1862L798.324 -40.3189L800.119 -42.1862L798.324 -44.0534L796.53 -42.1862Z" fill="url(#paint0_linear_4008_6296)"/>
<defs>
<linearGradient id="paint0_linear_4008_6296" x1="-71" y1="-81.7994" x2="1384.35" y2="781.293" gradientUnits="userSpaceOnUse">
<stop stop-color="white" stop-opacity="0.02"/>
<stop offset="0.210445" stop-color="white" stop-opacity="0.02"/>
<stop offset="0.875" stop-color="white" stop-opacity="0.1"/>
<stop offset="1" stop-color="white" stop-opacity="0.02"/>
</linearGradient>
</defs>
</svg>
