<svg width="15" height="12" viewBox="0 0 15 12" fill="none" xmlns="http://www.w3.org/2000/svg">
<path d="M10.3278 3.17329C10.6998 3.54478 10.9948 3.98593 11.1961 4.47153C11.3974 4.95712 11.501 5.47763 11.501 6.00329C11.501 6.52895 11.3974 7.04946 11.1961 7.53505C10.9948 8.02064 10.6998 8.4618 10.3278 8.83329M4.67451 8.82662C4.30261 8.45513 4.00757 8.01398 3.80628 7.52838C3.60498 7.04279 3.50137 6.52228 3.50137 5.99662C3.50137 5.47096 3.60498 4.95045 3.80628 4.46486C4.00757 3.97927 4.30261 3.53811 4.67451 3.16662M12.2145 1.28662C13.4643 2.53681 14.1664 4.23219 14.1664 5.99995C14.1664 7.76772 13.4643 9.4631 12.2145 10.7133M2.78785 10.7133C1.53804 9.4631 0.835937 7.76772 0.835938 5.99995C0.835937 4.23219 1.53804 2.53681 2.78785 1.28662" stroke="#FF4444" stroke-linecap="round" stroke-linejoin="round"/>
</svg>
