<svg width="50" height="51" viewBox="0 0 50 51" fill="none" xmlns="http://www.w3.org/2000/svg">
<path d="M0.570312 50.6856H49.458V39.894H0.570312V50.6856ZM42.2454 46.61C42.2454 46.2643 42.2677 46.0003 42.3125 45.8212C42.3572 45.6422 42.459 45.4946 42.619 45.376C42.7768 45.2563 43.033 45.1601 43.3764 45.0806C42.9043 45.0459 42.5966 44.9296 42.4579 44.7327C42.317 44.538 42.2454 44.1879 42.2454 43.6822C42.2454 43.228 42.3114 42.8711 42.4411 42.6138C42.5732 42.3576 42.7622 42.173 43.0084 42.06C43.2567 41.9481 43.542 41.881 43.8642 41.8564C44.1864 41.8317 44.6921 41.8206 45.3812 41.8206H46.8435V48.6405H44.7794V45.5718C44.5187 45.5718 44.3486 45.6087 44.2726 45.6825C44.1954 45.7575 44.1584 45.9219 44.1584 46.1737V48.6405H42.2442V46.61H42.2454ZM36.8373 41.8217H38.559V44.8994L39.7125 41.8217H41.4354V48.6416H39.7125V45.5382L38.6429 48.6416H36.8373V41.8217ZM29.657 41.8261H32.3208C32.4002 42.2356 32.4819 42.72 32.5658 43.2761L32.8589 45.009L33.3322 41.8261H36.0116V48.6428H34.2104L34.207 44.0413L33.491 48.6428H32.2134L31.4594 44.1465L31.4549 48.6428H29.657V41.8261ZM25.4941 41.8261H28.9276V43.191H27.5538V44.4821H28.8403V45.7799H27.5538V47.2779H29.0652V48.6428H25.4941V41.8261ZM18.6864 47.2186H19.1071C19.3309 46.6614 19.5121 45.9264 19.6531 45.0146C19.7963 44.1039 19.8667 43.1083 19.8667 42.0286V41.8217H24.4346V47.2108H24.8553V49.8175H23.4322V48.6428H20.105V49.8175H18.6876V47.2186H18.6864ZM8.50794 41.8217H10.5732L10.5821 44.7014C10.9703 44.6935 11.1717 44.5078 11.1851 44.1453L11.2232 42.8151C11.2355 42.3229 11.3462 41.9917 11.5554 41.8206H13.4585C13.2716 41.985 13.181 42.3285 13.1832 42.8465L13.1933 44.0189C13.2 44.7271 12.738 45.1299 11.8038 45.2249C12.738 45.3245 13.2 45.7317 13.1933 46.45L13.1832 47.5386C13.181 48.0151 13.2604 48.3642 13.4193 48.588L14.462 41.8239H17.4379L18.6148 48.6405H16.5116L16.4008 47.4155H15.6635L15.5416 48.6405H13.4585C13.4462 48.6249 13.4316 48.6059 13.4193 48.588L13.4115 48.6405H11.5566C11.3339 48.4694 11.2243 48.1382 11.2243 47.6482V46.3169C11.2243 46.149 11.1639 46.0137 11.0464 45.9096C10.9278 45.8078 10.7723 45.7552 10.5821 45.7519L10.5732 48.6405H8.50794V41.8217ZM4.0038 41.8261H6.97971L8.15888 48.6428H6.05337L5.94373 47.4177H5.20647L5.08228 48.6428H2.95328L4.0038 41.8261Z" fill="white"/>
<path d="M29.3561 38.9536V35.3735H30.2075V34.4248H27.0156V35.3735H27.8715V38.9536H29.3561Z" fill="white"/>
<path d="M33.8799 36.7697V36.1689C33.8799 35.7304 33.8251 35.3903 33.7165 35.1464C33.6069 34.9047 33.4167 34.7112 33.1426 34.5646C32.8719 34.4158 32.5273 34.3442 32.11 34.3442C31.7688 34.3442 31.4645 34.4058 31.2027 34.5266C30.9398 34.6497 30.7507 34.8242 30.6332 35.0513C30.518 35.2806 30.4609 35.5939 30.4609 35.9899V37.309C30.4609 37.6468 30.4878 37.9019 30.5381 38.0787C30.5896 38.2554 30.6813 38.4165 30.8156 38.5653C30.9487 38.7119 31.1378 38.8249 31.3783 38.9088C31.6189 38.9938 31.8963 39.0341 32.2107 39.0341C32.5362 39.0341 32.8047 38.9927 33.0207 38.9077C33.2355 38.8226 33.4145 38.6962 33.5521 38.5251C33.693 38.3539 33.7825 38.1939 33.8206 38.0417C33.8575 37.893 33.8788 37.6782 33.8788 37.3962V37.0628H32.4658V37.6614C32.4658 37.8862 32.4467 38.0373 32.4098 38.1167C32.3695 38.195 32.2957 38.2342 32.1838 38.2342C32.091 38.2342 32.0294 38.204 31.9981 38.1447C31.9668 38.0876 31.95 37.9545 31.95 37.7498V36.7708H33.8799V36.7697ZM31.9511 35.7013C31.9511 35.4462 31.9646 35.2896 31.9881 35.2314C32.0127 35.1732 32.0764 35.1442 32.1805 35.1442C32.2644 35.1442 32.3181 35.1788 32.3461 35.246C32.3729 35.3142 32.3874 35.4652 32.3874 35.7002V36.0313H31.9523V35.7013H31.9511Z" fill="white"/>
<path d="M22.3654 43.1699H21.7534V43.2214C21.7534 44.5247 21.5912 45.8561 21.2656 47.212H22.3654V43.1699Z" fill="white"/>
<path d="M49.4467 38.9534V34.4258H48.3436C47.4061 34.4258 46.7986 34.5231 46.5155 34.7211C46.2347 34.9169 46.0938 35.2414 46.0938 35.6911C46.0938 36.0983 46.1475 36.3803 46.2515 36.5391C46.3578 36.698 46.5894 36.7908 46.9462 36.8199C46.6699 36.8882 46.4752 36.9575 46.3623 37.0247C46.2481 37.0929 46.1743 37.188 46.1407 37.3055C46.1083 37.4252 46.0938 37.6198 46.0938 37.8917V38.9534H47.4586V37.706C47.4586 37.499 47.4944 37.3592 47.566 37.2842C47.6399 37.2081 47.7719 37.1723 47.9621 37.1723V38.9534H49.4467ZM47.5672 36.2852C47.4956 36.218 47.4598 36.076 47.4598 35.8578V35.7974C47.4598 35.5848 47.4911 35.4483 47.556 35.3902C47.6197 35.3331 47.7059 35.304 47.8155 35.304H47.9643V36.3847C47.7719 36.387 47.641 36.3523 47.5672 36.2852Z" fill="white"/>
<path d="M41.7442 9.48171H49.411L49.4491 4.93506H35.8203V32.4141H41.7442V9.48171Z" fill="white"/>
<path d="M34.3672 34.4244V39.5976H35.8574V38.5594C35.9872 38.716 36.1315 38.8346 36.2881 38.9152C36.447 38.9946 36.617 39.0326 36.8016 39.0326C37.031 39.0326 37.2301 38.9812 37.3946 38.8805C37.5579 38.7753 37.6653 38.6366 37.7168 38.4643C37.7705 38.2886 37.7973 37.9967 37.7973 37.5849V35.6763C37.7973 35.3161 37.7772 35.061 37.7347 34.9133C37.6933 34.7634 37.587 34.6303 37.4192 34.5151C37.2502 34.3998 37.0533 34.3428 36.8195 34.3428C36.6304 34.3428 36.4559 34.3842 36.2959 34.4625C36.136 34.5419 35.9894 34.6627 35.8585 34.8227L35.8831 34.4233H34.3672V34.4244ZM35.8988 35.2467C35.9267 35.1785 35.9905 35.1449 36.0878 35.1449C36.1908 35.1449 36.2523 35.174 36.2736 35.2344C36.2948 35.2937 36.306 35.4627 36.306 35.7423V37.6845C36.306 37.9262 36.2959 38.0761 36.2724 38.1399C36.2489 38.2025 36.1885 38.2338 36.0923 38.2338C35.9928 38.2338 35.9301 38.1991 35.901 38.1298C35.8719 38.0627 35.8574 37.8926 35.8574 37.6185V35.7412C35.8574 35.4806 35.8708 35.3139 35.8988 35.2467Z" fill="white"/>
<path d="M45.603 38.9533V36.6811C45.603 35.9327 45.5761 35.4371 45.5235 35.1976C45.4721 34.9571 45.3199 34.7557 45.0615 34.5902C44.8075 34.4246 44.4283 34.3418 43.9248 34.3418C43.503 34.3418 43.1607 34.4145 42.8989 34.56C42.6338 34.7065 42.4615 34.8732 42.372 35.0623C42.2858 35.2536 42.2422 35.5232 42.2422 35.8734V36.1777H43.6406V35.7044C43.6406 35.4505 43.6529 35.295 43.6787 35.2346C43.7022 35.1742 43.7648 35.1439 43.8655 35.1439C43.9528 35.1439 44.0165 35.1809 44.0557 35.2536C44.0926 35.3218 44.1116 35.4796 44.1116 35.7145C44.1116 35.9014 44.0949 36.0289 44.0602 36.0904C44.0255 36.1508 43.7637 36.2705 43.2748 36.4473C42.8172 36.6118 42.5319 36.755 42.4156 36.8758C42.3004 36.9989 42.2422 37.2293 42.2422 37.5694V37.9409C42.2422 38.3973 42.3507 38.6949 42.5677 38.8292C42.7859 38.9668 43.0276 39.0316 43.2871 39.0316C43.484 39.0316 43.6574 38.9936 43.8006 38.9119C43.9449 38.8314 44.0613 38.7106 44.153 38.5472V38.9511H45.603V38.9533ZM44.1116 37.7305C44.1116 37.9576 44.0982 38.0986 44.0702 38.1512C44.0423 38.2049 43.9819 38.2317 43.8868 38.2317C43.7894 38.2317 43.7234 38.197 43.6899 38.1288C43.6574 38.0617 43.6406 37.9106 43.6406 37.6768C43.6406 37.471 43.6597 37.3155 43.6988 37.2047C43.7357 37.0962 43.8733 36.9619 44.1116 36.7975V37.7305Z" fill="white"/>
<path d="M41.7785 38.9536V34.4248H40.295V36.0526H39.7591V34.4248H38.2812V38.9536H39.7591V37.2844H40.295V38.9536H41.7785Z" fill="white"/>
<path d="M25.2446 32.4155L25.5891 30.0493C25.588 30.0493 25.5858 30.0493 25.5836 30.0493L26.0669 26.7333H28.8034L29.1312 29.9487C29.13 29.9487 29.1278 29.9498 29.1267 29.9498L29.3773 32.4167H34.3804L34.0347 29.5851C34.0369 29.5839 34.0392 29.5839 34.0414 29.5839L31.5891 9.45068H24.6774L21.3882 30.0012C21.3904 30.0012 21.3927 30.0012 21.3938 30.0012L21.0078 32.4144H25.2446V32.4155ZM27.585 13.1493L27.7361 13.2422L28.4386 23.2618H26.6162L27.585 13.1493Z" fill="white"/>
<path d="M12.9151 38.9536V34.4248H11.0435L10.6105 36.9297L10.1339 34.4248H8.28906V38.9536H9.56557V35.8311L10.2055 38.9536H11.0211L11.6398 35.8311V38.9536H12.9151Z" fill="white"/>
<path d="M6.9045 34.4816C6.66397 34.3877 6.37757 34.3418 6.04306 34.3418C5.64478 34.3418 5.31698 34.4134 5.0619 34.5566C4.8057 34.6998 4.62894 34.8911 4.53161 35.1272C4.43316 35.3632 4.38281 35.6921 4.38281 36.1117V37.273C4.38281 37.6578 4.41078 37.9453 4.46448 38.1378C4.51818 38.3291 4.60992 38.4924 4.73522 38.6289C4.86276 38.7654 5.03953 38.865 5.26775 38.9354C5.4971 38.9992 5.77567 39.0316 6.10459 39.0316C6.40106 39.0316 6.66061 38.9936 6.88772 38.9164C7.11707 38.8381 7.30166 38.7162 7.4471 38.5517C7.59254 38.385 7.68764 38.2094 7.73239 38.0192C7.7749 37.8279 7.79839 37.5314 7.79839 37.1242V36.0143C7.79839 35.6944 7.77378 35.4561 7.72567 35.2995C7.67757 35.1428 7.58919 34.9907 7.45829 34.8419C7.3274 34.6931 7.1428 34.5734 6.9045 34.4816ZM6.3082 37.7619C6.3082 37.9576 6.29366 38.0852 6.26681 38.1433C6.23884 38.2026 6.17955 38.2329 6.09116 38.2329C6.00614 38.2329 5.94796 38.2004 5.91775 38.1366C5.88867 38.0706 5.873 37.9319 5.873 37.7193V35.6754C5.873 35.4438 5.88755 35.2961 5.91775 35.2357C5.94796 35.1753 6.00614 35.1451 6.09452 35.1451C6.1829 35.1451 6.24108 35.1764 6.26793 35.2357C6.29478 35.2961 6.3082 35.4438 6.3082 35.6754V37.7619Z" fill="white"/>
<path d="M2.68366 38.9513H4.11791C4.00603 38.8025 3.95121 38.5833 3.95121 38.2924V37.498C3.95121 37.1221 3.69725 36.8615 3.18934 36.7116C2.95104 36.6478 2.79217 36.6131 2.70715 36.5986C2.89174 36.5941 3.0562 36.5594 3.205 36.4934C3.43323 36.3927 3.58314 36.3144 3.65362 36.2618C3.84941 36.1153 3.94562 35.9329 3.94562 35.7114V35.0815C3.94562 34.7918 4.00156 34.5725 4.11231 34.4248H2.6747C2.56507 34.4707 2.51025 34.6486 2.51025 34.9573V35.7248C2.51025 36.0325 2.35362 36.1857 2.04149 36.1857V34.4259H0.570312V38.9524H2.04149V37.0047C2.35921 37.0047 2.51808 37.1579 2.51808 37.4645V38.4188C2.51696 38.6358 2.5729 38.8126 2.68366 38.9513Z" fill="white"/>
<path d="M16.0289 43.3467C15.8185 44.6523 15.6865 45.6066 15.6328 46.2085H16.3421C16.2381 45.4365 16.1329 44.4822 16.0289 43.3467Z" fill="white"/>
<path d="M44.776 44.5048V42.9956H44.6787C44.5064 42.9956 44.3755 43.0303 44.2871 43.0952C44.1988 43.1612 44.1562 43.3033 44.1562 43.5181V43.894C44.1562 44.1468 44.1909 44.3124 44.2648 44.3873C44.3386 44.4668 44.5109 44.5048 44.776 44.5048Z" fill="white"/>
<path d="M19.5692 29.9113V13.5103H14.8827V28.7433H12.3901V16.4213L7.73155 16.4123V28.3663V28.7612H5.24342V27.8148H5.24454V19.2965H0.555806V26.4767H0.554688V32.414H19.5692V29.9113Z" fill="white"/>
<path d="M18.9478 35.934V34.4248H17.4688V38.9536H19.1905C19.6984 38.9536 20.0632 38.9301 20.2869 38.8864C20.5107 38.8406 20.674 38.7287 20.778 38.5497C20.8843 38.3696 20.9369 38.072 20.9369 37.6603V37.1982C20.9369 36.8145 20.8821 36.5326 20.7702 36.3558C20.6595 36.179 20.4883 36.0638 20.2545 36.0112C20.0206 35.9597 19.6671 35.934 19.1916 35.934H18.9478ZM19.4523 37.3101V37.4913C19.4523 37.7363 19.4176 37.884 19.346 37.9288C19.2778 37.9769 19.1435 37.9993 18.9466 37.9993V36.7977C19.1827 36.8055 19.3259 36.8346 19.3762 36.8838C19.4266 36.9353 19.4523 37.0774 19.4523 37.3101Z" fill="white"/>
<path d="M16.9336 38.9536V34.4248H13.4453V38.9536H14.9232V35.3735H15.4513V38.9536H16.9336Z" fill="white"/>
<path d="M23.3864 37.9467C23.4077 38.1156 23.458 38.2711 23.5375 38.4087C23.6158 38.5486 23.7277 38.6627 23.8686 38.7533C24.0118 38.8462 24.1539 38.9021 24.2938 38.9245C24.437 38.9457 24.6126 38.9569 24.8285 38.9569C25.2604 38.9569 25.5893 38.9289 25.8153 38.873C26.0413 38.8159 26.2348 38.713 26.3926 38.5631C26.5514 38.4121 26.6532 38.2387 26.6991 38.0384C26.745 37.8404 26.7673 37.5338 26.7673 37.1199V36.019C26.7673 35.7326 26.7517 35.5122 26.7204 35.3545C26.6901 35.1934 26.6006 35.0345 26.453 34.8768C26.3075 34.719 26.1106 34.5982 25.8679 34.5177C25.6228 34.4382 25.3398 34.3979 25.0165 34.3979C24.7066 34.3979 24.4392 34.4382 24.211 34.5177C23.985 34.5982 23.8037 34.7213 23.6639 34.8857C23.5252 35.0479 23.4379 35.2281 23.4043 35.4216C23.3697 35.6174 23.354 35.849 23.354 36.1175V36.179H22.9076V34.4248H21.4141V38.9524H22.8987V37.1266H23.354V37.2743C23.354 37.5506 23.3652 37.7755 23.3864 37.9467ZM24.8397 35.6745C24.8397 35.4686 24.8509 35.3299 24.8744 35.256C24.8979 35.1811 24.9594 35.143 25.0612 35.143C25.1619 35.143 25.2234 35.18 25.2458 35.2527C25.2671 35.3209 25.2783 35.4641 25.2783 35.6733V37.9858C25.2783 38.0563 25.2592 38.1145 25.2179 38.1603C25.1776 38.2073 25.1261 38.2308 25.0612 38.2308C24.9124 38.2308 24.8397 38.0999 24.8397 37.8393V35.6745Z" fill="white"/>
<path d="M5.57573 43.3467C5.3654 44.6523 5.23339 45.6066 5.17969 46.2085H5.88786C5.78382 45.4365 5.67977 44.4822 5.57573 43.3467Z" fill="white"/>
<path d="M1.57414 19.0327L2.34273 19.0528L2.42999 18.876C3.10348 18.9991 3.86648 19.2038 4.45719 18.7519C4.39118 18.3748 3.85082 18.5303 3.59238 18.3446C3.46708 18.2697 3.31046 18.1936 3.22767 18.0672L3.10348 18.0515C3.3071 17.2561 3.73335 16.5647 4.11037 15.861C5.16648 14.6102 5.16201 12.8828 5.39471 11.2617C5.43275 11.1946 5.49876 11.1812 5.56476 11.189C5.61175 11.1845 5.66993 11.1857 5.73258 11.1879C5.93731 11.1924 6.18008 11.1968 6.12974 10.9753C7.10418 11.076 7.89291 11.6007 8.85616 11.7607C8.83379 11.8625 8.76778 11.9431 8.73757 12.0404C8.71408 12.2955 8.6973 12.5416 8.67716 12.7855L8.66821 12.9734C8.59773 14.222 8.58095 14.9425 8.7868 16.1474H9.47148L9.54756 15.974C10.1964 15.946 10.9538 16.0478 11.568 15.6439C11.464 15.2792 10.9382 15.494 10.6563 15.3296C10.4996 15.2456 10.2736 15.1606 10.2143 14.9704C10.1897 13.6883 10.3161 12.3592 10.5858 11.1129C9.66055 9.78833 8.30685 9.47172 7.11089 8.79598C7.16236 8.65166 7.1176 8.68746 7.20039 8.55992C6.87819 8.54986 6.69136 8.28359 6.41167 8.36526C6.36356 8.04753 6.33895 7.66268 6.42173 7.33376C6.509 7.40872 6.61192 7.4434 6.67346 7.54744C7.29325 7.79357 7.98465 7.8786 8.58318 8.19521L8.81701 8.04753C8.91881 8.07998 9.06649 8.16836 9.00719 8.28359C9.02398 8.25786 9.05083 8.26233 9.07768 8.26569C9.09782 8.26793 9.11795 8.27128 9.13585 8.26233C9.17501 8.2187 9.22647 8.18738 9.21081 8.11801C9.36744 7.9502 9.48491 7.66268 9.40212 7.40872C9.35177 7.28901 9.24102 7.29572 9.1325 7.30132C9.05306 7.30579 8.97587 7.31027 8.92105 7.26887V7.19503L6.95874 6.3403C6.87931 5.91293 6.68576 5.54374 6.52019 5.16448C6.4911 4.29744 5.76166 3.69554 5.79858 2.84305C5.9127 2.68418 6.03912 2.7088 6.16889 2.73453C6.24049 2.74795 6.31433 2.7625 6.38593 2.74236C6.48439 2.66964 6.53921 2.6137 6.50005 2.46826C6.54256 2.44029 6.55375 2.35527 6.62423 2.34743C6.64549 2.15053 6.61192 1.92902 6.8547 1.88203C6.78086 1.71981 6.66115 1.57884 6.64549 1.37971C6.801 1.09106 6.61192 0.703972 6.63654 0.400788C6.34007 0.276605 6.01674 0.0327148 5.68111 0.0327148C5.53567 0.0327148 5.388 0.0785841 5.2392 0.202767C4.96734 0.48917 4.79058 0.803542 4.79058 1.11568C4.7738 1.72428 4.86554 1.74666 4.90805 2.15836C4.81631 2.24003 4.8096 2.46602 4.63731 2.37317C4.40237 2.65509 4.13051 2.97394 3.87319 3.26594C3.07999 3.94615 1.97353 4.57489 1.80684 5.7261C1.84823 6.60209 1.8404 7.45011 1.78446 8.33393C1.81467 8.33841 1.84823 8.33617 1.8818 8.33505C1.94333 8.3317 2.00374 8.32722 2.04402 8.36414C2.03059 8.38092 2.025 8.39323 2.01605 8.40665H2.01045C2.01045 8.45476 2.01045 8.49951 2.0015 8.54762H2.06751C2.1861 8.82395 2.06192 9.21216 2.12792 9.50752C2.19617 9.6082 2.16372 9.81741 2.31476 9.8286C2.31476 9.79056 2.30804 9.74469 2.34273 9.71784L2.46915 9.96733C2.55082 10.0132 2.562 9.90244 2.60116 9.8644C2.66045 9.89685 2.61794 9.98523 2.62913 10.0423C2.66045 10.0826 2.69178 10.1351 2.76002 10.1161L2.82044 9.36655C2.90323 9.58919 2.89092 9.8644 2.91777 10.1161H2.9849C3.10237 10.0143 3.04307 9.8286 3.06209 9.68204C3.03077 9.23901 3.10237 8.86199 2.92448 8.47714C2.9849 8.42903 3.00839 8.37309 2.99944 8.28918C3.04195 8.28023 3.05314 8.21199 3.10348 8.22541C3.2534 7.44116 3.22767 6.53832 3.27466 5.76302L3.54763 5.55157C3.76244 6.67593 3.5275 7.83049 3.29815 8.93583C3.36192 9.13721 3.42233 9.38445 3.33619 9.61604L3.31381 10.0423H3.34737L3.3608 9.84986C3.3608 10.2694 3.20194 10.7863 3.50065 11.0022C3.46037 12.0874 3.42121 13.1659 3.23774 14.1739C2.54298 15.7222 1.49918 17.265 1.57414 19.0327Z" fill="white"/>
</svg>
