<svg width="50" height="51" fill="none" xmlns="http://www.w3.org/2000/svg"><path d="M.57 50.686h48.888V39.894H.57v10.792Zm41.675-4.076c0-.346.023-.61.068-.789a.778.778 0 0 1 .306-.445c.158-.12.414-.216.757-.295-.472-.035-.78-.151-.918-.348-.141-.195-.213-.545-.213-1.05 0-.455.066-.812.196-1.07.132-.255.321-.44.567-.553.249-.112.534-.179.856-.204.322-.024.828-.035 1.517-.035h1.462v6.82H44.78v-3.07c-.26 0-.43.038-.506.111-.078.075-.115.24-.115.492v2.467h-1.914V46.61h.001Zm-5.408-4.788h1.722v3.077l1.154-3.077h1.722v6.82h-1.723v-3.104l-1.07 3.104h-1.805v-6.82Zm-7.18.004h2.664c.08.41.16.894.245 1.45l.293 1.733.473-3.183h2.68v6.817H34.21l-.003-4.602-.716 4.602h-1.278l-.754-4.496-.004 4.496h-1.798v-6.817Zm-4.163 0h3.434v1.365h-1.374v1.291h1.286v1.298h-1.286v1.498h1.511v1.365h-3.57v-6.817Zm-6.808 5.393h.421c.224-.558.405-1.293.546-2.204.143-.911.214-1.907.214-2.986v-.207h4.568v5.389h.42v2.607h-1.423v-1.175h-3.327v1.175h-1.417v-2.6h-.002ZM8.508 41.822h2.065l.01 2.88c.387-.008.589-.194.602-.557l.038-1.33c.012-.492.123-.823.332-.994h1.904c-.187.164-.278.508-.276 1.026l.01 1.172c.007.708-.455 1.11-1.39 1.206.935.1 1.397.507 1.39 1.225l-.01 1.089c-.002.476.077.825.236 1.049l1.043-6.764h2.976l1.177 6.817h-2.103l-.111-1.225h-.737l-.122 1.225h-2.083a1.04 1.04 0 0 1-.04-.053l-.008.053h-1.854c-.223-.172-.333-.503-.333-.993v-1.331a.52.52 0 0 0-.178-.407.709.709 0 0 0-.464-.158l-.009 2.889H8.508v-6.82Zm-4.504.004H6.98l1.179 6.817H6.053l-.11-1.225h-.737l-.124 1.225H2.953l1.05-6.817Zm25.352-2.872v-3.58h.851v-.95h-3.191v.95h.856v3.58h1.484Zm4.524-2.184v-.601c0-.439-.055-.779-.163-1.023-.11-.241-.3-.435-.574-.581-.271-.15-.616-.22-1.033-.22a2.15 2.15 0 0 0-.907.182 1.174 1.174 0 0 0-.57.524c-.115.23-.172.543-.172.939v1.319c0 .338.027.593.077.77.052.176.143.337.278.486.133.147.322.26.562.344.24.085.518.125.833.125.325 0 .594-.041.81-.126.215-.085.393-.212.531-.383a1.28 1.28 0 0 0 .269-.483c.037-.149.058-.364.058-.646v-.333h-1.413v.598c0 .225-.02.376-.056.456-.04.078-.114.117-.226.117-.093 0-.155-.03-.186-.09-.031-.056-.048-.19-.048-.394v-.98h1.93Zm-1.93-1.07c0-.255.014-.411.037-.47.025-.058.088-.087.193-.087.083 0 .137.035.165.102.027.068.041.22.041.454v.331h-.435v-.33Z" fill="#fff"/><path d="M22.365 43.17h-.612v.051a17.06 17.06 0 0 1-.487 3.991h1.1V43.17Zm27.082-4.217v-4.527h-1.103c-.938 0-1.545.097-1.828.295-.281.196-.422.52-.422.97 0 .407.053.69.157.848.107.159.338.252.695.28-.276.07-.47.139-.584.206a.472.472 0 0 0-.221.28c-.033.12-.047.315-.047.587v1.061h1.365v-1.247c0-.207.035-.347.107-.422.074-.076.206-.112.396-.112v1.781h1.485Zm-1.88-2.668c-.071-.067-.107-.209-.107-.427v-.06c0-.213.031-.35.096-.408a.374.374 0 0 1 .26-.086h.148v1.08c-.192.003-.323-.032-.397-.099ZM41.744 9.482h7.667l.038-4.547H35.82v27.48h5.924V9.481Zm-7.377 24.942v5.174h1.49v-1.039c.13.157.275.276.431.356.159.08.329.118.514.118.229 0 .428-.052.593-.153a.737.737 0 0 0 .322-.416c.053-.175.08-.467.08-.88v-1.908c0-.36-.02-.615-.062-.763-.042-.15-.148-.283-.316-.398a1.031 1.031 0 0 0-.6-.172c-.189 0-.363.041-.523.12-.16.079-.307.2-.438.36l.025-.4h-1.516v.001Zm1.532.823c.028-.069.091-.102.189-.102.103 0 .164.029.186.09.02.059.032.228.032.507v1.943c0 .241-.01.391-.034.455-.023.063-.084.094-.18.094-.1 0-.162-.035-.191-.104-.03-.067-.044-.237-.044-.512v-1.877c0-.26.014-.427.042-.494Zm9.704 3.706v-2.272c0-.748-.027-1.244-.08-1.483-.05-.24-.203-.442-.462-.608-.254-.165-.633-.248-1.136-.248-.422 0-.764.072-1.026.218-.265.146-.438.313-.527.502-.086.192-.13.461-.13.811v.305h1.399v-.474c0-.254.012-.409.038-.47.023-.06.086-.09.186-.09a.2.2 0 0 1 .19.11c.038.068.057.226.057.46 0 .187-.017.315-.052.376-.035.06-.296.18-.785.357-.458.165-.743.308-.86.429-.115.123-.173.353-.173.693v.372c0 .456.109.754.326.888.218.138.46.203.72.203.196 0 .37-.038.513-.12a.915.915 0 0 0 .352-.365v.404h1.45v.002Zm-1.491-1.223c0 .228-.014.369-.042.421-.028.054-.088.08-.183.08-.098 0-.164-.034-.197-.102-.033-.067-.05-.218-.05-.452 0-.206.02-.361.059-.472.037-.109.174-.243.413-.407v.932Zm-2.333 1.224v-4.53h-1.484v1.629h-.536v-1.628h-1.478v4.529h1.478v-1.67h.536v1.67h1.483Zm-16.534-6.538.344-2.367h-.005l.483-3.316h2.736l.328 3.216h-.004l.25 2.468h5.003l-.345-2.832.006-.001L31.59 9.45h-6.912L21.388 30h.006l-.386 2.413h4.237v.002Zm2.34-19.267.151.093.703 10.02h-1.823l.969-10.113Zm-14.67 25.805v-4.53h-1.871l-.434 2.506-.476-2.505H8.289v4.529h1.277V35.83l.64 3.123h.815l.619-3.123v3.123h1.275Zm-6.011-4.472a2.366 2.366 0 0 0-.86-.14c-.4 0-.727.071-.982.215a1.158 1.158 0 0 0-.53.57c-.099.236-.15.565-.15.985v1.161c0 .385.029.672.082.865.054.191.146.354.271.49.128.137.305.237.533.307.23.064.508.097.837.097.296 0 .556-.038.783-.116a1.28 1.28 0 0 0 .844-.897c.043-.191.066-.488.066-.895v-1.11c0-.32-.024-.558-.072-.715a1.252 1.252 0 0 0-.268-.457 1.382 1.382 0 0 0-.554-.36Zm-.596 3.28c0 .196-.014.323-.041.381-.028.06-.087.09-.176.09-.085 0-.143-.033-.173-.096-.03-.066-.045-.205-.045-.418v-2.044c0-.231.015-.379.045-.44.03-.06.088-.09.177-.09.088 0 .146.031.173.09.027.061.04.209.04.44v2.087Zm-3.624 1.189h1.434c-.112-.148-.167-.368-.167-.659v-.794c0-.376-.254-.636-.762-.786a5.908 5.908 0 0 0-.482-.113c.185-.005.35-.04.498-.106.228-.1.378-.179.449-.231.195-.147.292-.33.292-.55v-.63c0-.29.056-.51.166-.657H2.675c-.11.046-.165.224-.165.532v.768c0 .307-.156.46-.469.46v-1.76H.571v4.527h1.47v-1.947c.318 0 .477.153.477.46v.954a.819.819 0 0 0 .166.532Zm13.345 4.396c-.21 1.305-.342 2.26-.396 2.861h.71a69.248 69.248 0 0 1-.314-2.861Zm28.747 1.158v-1.51h-.097c-.173 0-.303.035-.392.1-.088.066-.13.208-.13.423v.376c0 .253.034.418.108.493.074.08.246.118.511.118ZM19.57 29.911v-16.4h-4.687v15.232H12.39V16.421l-4.658-.009v12.349H5.243v-.946h.002v-8.518H.555v13.117h19.014v-2.503Zm-.622 6.023v-1.51h-1.48v4.53h1.723c.507 0 .872-.024 1.096-.068a.698.698 0 0 0 .491-.336c.106-.18.159-.478.159-.89v-.462c0-.383-.055-.665-.167-.842a.778.778 0 0 0-.515-.345c-.234-.051-.588-.077-1.063-.077h-.244Zm.504 1.376v.181c0 .245-.034.393-.106.438-.068.048-.203.07-.4.07v-1.201c.237.008.38.037.43.086.05.051.076.193.076.426Zm-2.518 1.644v-4.53h-3.489v4.53h1.478v-3.58h.528v3.58h1.483Zm6.452-1.007c.022.169.072.324.152.462a.97.97 0 0 0 .33.344c.144.093.286.15.426.172.143.02.319.032.534.032.432 0 .761-.028.987-.084.226-.057.42-.16.578-.31.158-.15.26-.324.306-.525.046-.198.068-.504.068-.918v-1.101c0-.286-.015-.507-.047-.664a.975.975 0 0 0-.267-.478 1.365 1.365 0 0 0-.585-.36 2.757 2.757 0 0 0-.851-.12c-.31 0-.578.041-.806.12a1.254 1.254 0 0 0-.547.369 1.112 1.112 0 0 0-.26.536c-.034.195-.05.427-.05.696v.061h-.446v-1.754h-1.494v4.527H22.9v-1.825h.455v.147c0 .277.011.502.032.673Zm1.454-2.273c0-.205.01-.344.034-.418.024-.075.085-.113.187-.113.1 0 .162.037.185.11.021.068.032.211.032.42v2.313a.25.25 0 0 1-.06.174.196.196 0 0 1-.157.07c-.149 0-.221-.13-.221-.39v-2.166ZM5.576 43.347c-.21 1.305-.343 2.26-.396 2.861h.708a69.477 69.477 0 0 1-.312-2.861Z" fill="#fff"/><path d="m1.574 19.033.769.02.087-.177c.673.123 1.436.328 2.027-.124-.066-.377-.606-.222-.865-.407-.125-.075-.282-.151-.364-.278l-.125-.015c.204-.796.63-1.487 1.007-2.191 1.056-1.25 1.052-2.978 1.285-4.6.038-.066.104-.08.17-.072.047-.005.105-.003.168-.001.204.004.447.009.397-.213.974.101 1.763.626 2.726.786-.022.102-.088.182-.118.28-.024.255-.04.5-.06.745l-.01.187c-.07 1.249-.087 1.97.119 3.174h.684l.077-.173c.648-.028 1.406.074 2.02-.33-.104-.365-.63-.15-.912-.314-.156-.084-.382-.17-.442-.36a16.947 16.947 0 0 1 .372-3.857C9.66 9.788 8.306 9.472 7.11 8.796c.051-.144.007-.109.09-.236-.323-.01-.51-.276-.79-.195-.047-.317-.072-.702.01-1.031.088.075.19.11.252.213.62.247 1.312.332 1.91.648l.234-.147c.102.032.25.12.19.236.017-.026.044-.022.07-.018.02.002.041.005.059-.004.039-.043.09-.075.075-.144.156-.168.274-.455.191-.71-.05-.119-.161-.112-.27-.107-.079.005-.156.01-.211-.032v-.074L6.959 6.34c-.08-.427-.273-.796-.439-1.176-.029-.867-.758-1.468-.721-2.321.114-.159.24-.134.37-.108.071.013.145.028.217.007.098-.072.153-.128.114-.274.043-.028.054-.113.124-.12.021-.197-.012-.419.23-.466-.073-.162-.193-.303-.209-.502.156-.289-.033-.676-.008-.98C6.34.278 6.017.034 5.68.034a.67.67 0 0 0-.442.17c-.272.286-.448.6-.448.913-.017.608.075.63.117 1.042-.092.082-.098.308-.27.215-.236.282-.507.6-.765.893-.793.68-1.9 1.309-2.066 2.46.041.876.033 1.724-.023 2.608.03.004.064.002.098.001.061-.003.122-.008.162.03-.013.016-.019.028-.028.042H2.01c0 .048 0 .093-.008.14h.066c.118.277-.006.665.06.96.068.101.036.31.187.322 0-.038-.007-.084.028-.111l.126.25c.082.045.093-.066.132-.104.06.033.017.121.028.178.031.04.063.093.131.074l.06-.75c.083.223.07.498.098.75h.067c.117-.102.058-.287.077-.434-.031-.443.04-.82-.138-1.205.06-.048.084-.104.075-.188.043-.009.054-.077.104-.064.15-.784.125-1.687.172-2.462l.273-.211c.214 1.124-.02 2.278-.25 3.384.064.201.124.448.038.68l-.022.426h.033l.014-.192c0 .42-.16.936.14 1.152-.04 1.085-.08 2.164-.263 3.172-.695 1.548-1.739 3.091-1.664 4.859Z" fill="#fff"/></svg>