<svg width="86" height="75" fill="none" xmlns="http://www.w3.org/2000/svg"><path d="M84.832 33.978C82.254 13.826 60.559-2.382 40.564.289c-.479.064-.952.14-1.422.224a.594.594 0 0 0-.63-.257c-2.94.591-5.86 1.256-8.686 2.112C17.896 4.655 7.038 11.306 2.248 23.12-5.41 42.015 7.527 64.664 25.514 71.865c.42.168.843.326 1.268.478a30.793 30.793 0 0 0 17.405 2.266A48.678 48.678 0 0 0 70.7 64.415a32.215 32.215 0 0 0 6.644-7.141c5.508-6.164 8.668-14.066 7.488-23.296Zm-1.009 1.861c.4 4.973-.637 9.955-2.986 14.355a26.956 26.956 0 0 0 1.085-4.533c.866-5.865-.256-11.813-2.567-17.268a29.58 29.58 0 0 0-5.11-11.64C68.568 8.95 59.56 4.503 50.302 2.553a52.214 52.214 0 0 0-9.76-1.089c20.09-2.72 41.544 14.06 43.282 34.376ZM70.505 61.98a42.883 42.883 0 0 1-8.566 4.83c8.845-6.64 15.495-16.572 17.475-27.112.364-1.94.536-3.91.513-5.883 1.316 5.124 1.452 10.505-.08 15.641a25.434 25.434 0 0 1-3.633 7.372 37.214 37.214 0 0 1-5.71 5.152ZM40.916 73.506a37.93 37.93 0 0 1-14.335-2.568 29.594 29.594 0 0 1-8.747-6.633c.18.14.356.288.54.425 8.708 6.496 19.95 8.154 30.536 6.799a47.452 47.452 0 0 0 3.344-.551 35.938 35.938 0 0 1-7.64 2.327c-1.233.11-2.467.18-3.698.201Zm-2.37-2.863c-8.977-.614-17.45-4.097-23.659-10.684-.341-.362-.67-.733-.99-1.109a32.07 32.07 0 0 1-.495-.913C4.752 41.266 10.52 18.95 25.266 7.86c6.501-3.055 13.378-4.965 20.896-4.226 11.412 1.12 21.499 8.492 27.944 17.69a39.952 39.952 0 0 1 4.179 7.597c2.29 13.053-5.3 27.003-15.495 35.54a43.943 43.943 0 0 1-5.898 4.168 52.22 52.22 0 0 1-18.346 2.015ZM34.703 2.84a49.706 49.706 0 0 1 2.33-.148c-1.68.285-3.34.678-4.97 1.177a33.39 33.39 0 0 1 2.13-.855c.17-.061.34-.116.51-.174Zm-9.906 3.88a100.614 100.614 0 0 0-10.047 5.6c.079-.089.152-.182.232-.27 4.044-4.437 9.432-6.902 15.09-8.56a34.814 34.814 0 0 0-5.275 3.23Zm-12.143 8.223a.56.56 0 0 0 .352-.095c2.556-1.634 5.148-3.236 7.795-4.7C12.2 18.654 7.53 31.337 8.316 43.637a38.756 38.756 0 0 0 1.949 9.884 36.522 36.522 0 0 1-4.17-16.526c-.16-7.787 2.025-15.71 6.559-22.05Zm48.17-7.59a34.147 34.147 0 0 1 12.704 10.458 27.433 27.433 0 0 1 2.726 4.623 46.602 46.602 0 0 0-2.203-3.242A43.916 43.916 0 0 0 60.824 7.354ZM1.364 34.636C1.252 23.33 7.612 13.588 17.267 8.072c.76-.434 1.532-.84 2.318-1.215a28.408 28.408 0 0 0-7.482 6.746c-6.079 7.883-8.109 18.57-6.851 28.298A34.674 34.674 0 0 0 12.9 59.508a31.171 31.171 0 0 0 5.133 6.82 40.201 40.201 0 0 1-3.5-2.778 39.893 39.893 0 0 1-13.17-28.915ZM54.036 71.56a42.763 42.763 0 0 0 3.94-2.09 49.018 49.018 0 0 0 10.18-4.658 43.069 43.069 0 0 1-3.67 2.366 46.631 46.631 0 0 1-10.45 4.382Z" fill="#4744C9"/><path fill-rule="evenodd" clip-rule="evenodd" d="M65.854 20.093a.861.861 0 0 0-.178-.295.642.642 0 0 0-.755-.556c-6.851.845-13.882.357-20.78.39a33.804 33.804 0 0 1-.176-4.059c.025-.99-1.485-.911-1.527.062a28.186 28.186 0 0 0 .097 4.013 614.92 614.92 0 0 0-10.161.198c-1.76.05-3.518.108-5.273.175-1.661-.078-3.326 0-4.973.232-1.747.417-1.712 3.036-.659 4.187.725.794 1.634.632 2.59.489.009 2.787.027 5.573.056 8.36l-.06.084a.385.385 0 0 0 .066.545c.033 3.391.071 6.782.113 10.173.015 1.508-.008 3.024.045 4.534a3.781 3.781 0 0 0 .785 2.607 3 3 0 0 0 2.097.725c1.747.125 3.519.127 5.272.169 2.472.057 4.947.094 7.424.11-2.222 2.415-4.486 4.804-6.604 7.302a.758.758 0 0 0 1.114 1.027c2.545-2.667 4.935-5.505 7.387-8.26l.036-.052c.317.002.633.007.948.008.053 2.75.167 5.494.343 8.236.066.992 1.613.932 1.543-.06a193.32 193.32 0 0 1-.404-8.176c.495 0 .99 0 1.485-.003.02.045.047.087.08.125a67.131 67.131 0 0 0 8.403 8.762.744.744 0 0 0 1.007-1.092c-2.629-2.569-5.277-5.069-7.738-7.798a579.24 579.24 0 0 0 4.747-.037c2.908-.04 5.99.156 8.85-.459a4.183 4.183 0 0 0 2.44-1.113c.713-.89.49-2.222.466-3.266l-.511-22.121c3.014-.174 3.275-2.805 2.406-5.166ZM32.307 47.067a282.908 282.908 0 0 0-3.23 3.205l-.998-.024c-.84-.018-1.726-.083-2.05-.94a1.428 1.428 0 0 1-.035-.108c1.517-1.31 2.926-2.761 4.341-4.187a.7.7 0 0 0 1.032.004c2.345-2.436 4.688-4.878 7.027-7.325l1.75-1.834c.295-.305.587-.612.88-.915.247-.512.502-.484.765.083a9.862 9.862 0 0 1 1.733 1.785c.575.596 1.155 1.189 1.732 1.785.513.526 1.123 1.46 1.993 1.248 1.068-.262 2.151-1.925 2.89-2.666 2.425-2.437 4.965-4.802 7.267-7.351a.788.788 0 0 0-1.157-1.069c-2.539 2.318-4.89 4.87-7.312 7.308-.528.685-1.14 1.3-1.82 1.834.22.557.11.54-.328-.052l-.873-.887a41.124 41.124 0 0 0-3.49-3.54c-.678-.535-1.231-.695-1.961-.132a30.21 30.21 0 0 0-3.202 3.36 2201.762 2201.762 0 0 0-6.062 6.438.545.545 0 0 0-.64.11c-1.528 1.509-3.14 2.977-4.614 4.553a4.088 4.088 0 0 0 .001-.164c-.024-1.335-.036-2.67-.053-4.004a40.302 40.302 0 0 0 6.431-7.166c.406-.558-.386-1.298-.795-.734a69.012 69.012 0 0 1-5.653 6.621l-.049-3.851c2.2-2.378 4.125-5.038 6.14-7.568.41-.515-.342-1.215-.756-.696-1.799 2.254-3.708 4.461-5.403 6.805-.018-1.417-.038-2.833-.058-4.25 1.77-1.82 3.385-3.8 5.052-5.708.453-.517-.33-1.243-.785-.724-1.427 1.628-2.91 3.225-4.29 4.9-.034-2.152-.072-4.305-.114-6.458 1.354-.105 2.716-.098 4.076-.076a5249.5 5249.5 0 0 1 21.712.38c3.39.06 6.856.323 10.265.264a89379.624 89379.624 0 0 0 .471 20.483c.032 1.487.516 3.44-1.07 4.122h-.001c-1.216.351-2.483.49-3.745.41-1.401.043-2.802.06-4.201.082a543.55 543.55 0 0 1-16.805 0c-1.946-.03-3.89-.068-5.834-.113.878-.83 1.748-1.67 2.617-2.51.498-.48-.296-1.213-.79-.728Zm30.214-23.521c-1.426-.015-2.849-.047-4.275-.073l-8.888-.15c-5.816-.1-11.63-.197-17.443-.294-1.407-.024-2.814-.065-4.224-.051-1.351.014-2.829.428-4.148.355-.517-.029-.608.403-1.016-.411a1.675 1.675 0 0 1-.079-.738c.182-.486.526-.341 1.09-.366a602.841 602.841 0 0 1 22.1-.57c6.21-.042 12.52.348 18.702-.381.173.405.283.834.325 1.272.033 1.221-1.145 1.418-2.144 1.407Z" fill="#4744C9"/></svg>