<svg width="149" height="148" fill="none" xmlns="http://www.w3.org/2000/svg"><rect x=".953" y="53.845" width="107.689" height="107.689" rx="18.356" transform="rotate(-30 .953 53.845)" fill="url(#a)"/><g filter="url(#b)"><rect x="7.641" y="55.636" width="97.899" height="97.899" rx="13.461" transform="rotate(-30 7.64 55.636)" fill="#001E36"/></g><g filter="url(#c)" fill="#31A8FF"><path d="m37.148 70.356 15.265-8.813c3.77-2.177 7.484-2.789 11.145-1.837 3.676.942 6.598 3.29 8.765 7.043 2.157 3.736 2.695 7.46 1.615 11.17-1.09 3.695-3.57 6.66-7.442 8.895l-7.226 4.172 6.66 11.537-7.657 4.422-21.125-36.59Zm11.157 1.639 7.51 13.007 5.553-3.206c2.197-1.269 3.578-2.82 4.141-4.656.563-1.835.245-3.792-.956-5.871-1.2-2.08-2.731-3.326-4.592-3.739-1.854-.44-3.88-.025-6.078 1.244l-5.578 3.22Zm29.275-2.466c-1.513-2.62-1.663-5.34-.45-8.158 1.212-2.819 3.584-5.248 7.117-7.288 3.449-1.991 6.698-2.785 9.748-2.382 3.04.386 5.357 1.9 6.949 4.541l-6.846 3.953c-.719-1.05-1.695-1.648-2.928-1.792-1.242-.162-2.574.168-3.994.987-1.335.771-2.248 1.67-2.737 2.696-.499 1.01-.49 1.962.027 2.858.79 1.37 2.595 1.624 5.411.764l5.908-1.89c3.177-.977 5.702-1.229 7.576-.755 1.89.463 3.436 1.735 4.636 3.814 1.562 2.705 1.688 5.54.379 8.504-1.318 2.947-3.811 5.48-7.48 7.597-3.634 2.099-7.022 2.984-10.164 2.657-3.134-.354-5.58-1.838-7.337-4.453l7.226-4.172c.87 1.076 1.946 1.672 3.23 1.787 1.273.099 2.68-.296 4.218-1.184 1.47-.85 2.477-1.78 3.02-2.792.533-1.029.536-2 .009-2.913-.42-.727-1.022-1.145-1.807-1.255-.768-.12-1.874.033-3.317.461l-5.821 1.805c-6.001 1.865-10.192.735-12.574-3.39Z"/></g><defs><filter id="b" x="12.563" y="11.611" width="123.883" height="126.331" filterUnits="userSpaceOnUse" color-interpolation-filters="sRGB"><feFlood flood-opacity="0" result="BackgroundImageFix"/><feBlend in="SourceGraphic" in2="BackgroundImageFix" result="shape"/><feColorMatrix in="SourceAlpha" values="0 0 0 0 0 0 0 0 0 0 0 0 0 0 0 0 0 0 127 0" result="hardAlpha"/><feOffset dy="4.895"/><feGaussianBlur stdDeviation="1.224"/><feComposite in2="hardAlpha" operator="arithmetic" k2="-1" k3="1"/><feColorMatrix values="0 0 0 0 0 0 0 0 0 0 0 0 0 0 0 0 0 0 0.25 0"/><feBlend in2="shape" result="effect1_innerShadow_4008_6338"/></filter><filter id="c" x="34.701" y="51.599" width="77.02" height="62.688" filterUnits="userSpaceOnUse" color-interpolation-filters="sRGB"><feFlood flood-opacity="0" result="BackgroundImageFix"/><feColorMatrix in="SourceAlpha" values="0 0 0 0 0 0 0 0 0 0 0 0 0 0 0 0 0 0 127 0" result="hardAlpha"/><feOffset dy="4.895"/><feGaussianBlur stdDeviation="1.224"/><feComposite in2="hardAlpha" operator="out"/><feColorMatrix values="0 0 0 0 0 0 0 0 0 0 0 0 0 0 0 0 0 0 0.25 0"/><feBlend in2="BackgroundImageFix" result="effect1_dropShadow_4008_6338"/><feBlend in="SourceGraphic" in2="effect1_dropShadow_4008_6338" result="shape"/></filter><linearGradient id="a" x1="54.798" y1="53.845" x2="54.798" y2="161.534" gradientUnits="userSpaceOnUse"><stop stop-color="#31A8FF"/><stop offset="1" stop-color="#0067E0"/></linearGradient></defs></svg>