<svg width="1400" height="850" fill="none" xmlns="http://www.w3.org/2000/svg"><path fill-rule="evenodd" clip-rule="evenodd" d="M263.747 846.307h78.377l1.7-1.769v-80.487l-1.701-1.77h-80.265v82.061l1.889 1.965Zm-2.488-1.769v-82.257h-80.077l-1.889 1.965v80.096l1.889 1.965h78.377l1.7-1.769Zm-82.564 0v-80.487l-1.701-1.77H98.617l-1.889 1.965v80.096l1.889 1.965h78.377l1.701-1.769Zm-82.565 0v-80.487l-1.701-1.77H14.163v82.061l1.889 1.965h78.377l1.7-1.769Zm-82.565 0v-82.257h-80.078l-1.889 1.965v80.096l1.89 1.965h78.376l1.7-1.769Zm-80.078 2.391-2.094 2.179-2.393-2.49 2-2.08v-80.487l-2-2.081 2-2.08v-80.487l-2-2.081 2-2.08v-80.487l-2-2.081 2-2.081v-80.486l-2-2.081 2-2.081v-80.486l-2-2.081 2-2.081v-80.486l-2-2.081 2-2.081v-80.487l-2-2.08 2-2.081v-80.487l-2-2.08 2-2.081V86.866l-2-2.08 2-2.08V2.217l-2-2.08 2-2.08V-82.43l-2-2.08 2.393-2.49 2.094 2.178h78.377L13.958-87l2.094 2.178h78.377L96.523-87l2.094 2.178h78.377L179.088-87l2.094 2.178h78.377L261.653-87l2.094 2.178h78.377L344.218-87l2.093 2.178h78.378L426.782-87l2.094 2.178h78.377L509.347-87l2.094 2.178h78.377L591.912-87l2.094 2.178h78.377L674.477-87l2.094 2.178h78.377L757.042-87l2.094 2.178h78.163L839.393-87l2.094 2.178h78.377L921.958-87l2.094 2.178h78.378l2.09-2.178 2.1 2.178h78.37l2.1-2.178 2.09 2.178h78.38l2.09-2.178 2.1 2.178h78.37l2.1-2.178 2.09 2.178h78.38l2.09-2.178 2.1 2.178h78.37l2.1-2.178 2.09 2.178h78.38l2.09-2.178 2.1 2.178h78.37l2.1-2.178 2.09 2.178h78.38l2.09-2.178 2.1 2.178h78.37l2.1-2.178 2.39 2.49-2.09 2.178v80.29l2.09 2.18-2.09 2.178v80.291l2.09 2.179-2.09 2.178v80.291l2.09 2.179-2.09 2.179v80.29l2.09 2.179-2.09 2.179v80.29l2.09 2.179-2.09 2.179v80.29l2.09 2.179-2.09 2.179v80.29l2.09 2.179-2.09 2.179v80.29l2.09 2.179-2.09 2.179v80.29l2.09 2.179-2.09 2.179v80.29l2.09 2.179-2.09 2.179v80.29l2.09 2.179-2.39 2.49-2.1-2.179h-78.37l-2.1 2.179-2.09-2.179h-78.38l-2.09 2.179-2.1-2.179h-78.37l-2.1 2.179-2.09-2.179h-78.38l-2.09 2.179-2.1-2.179h-78.37l-2.1 2.179-2.09-2.179h-78.38l-2.09 2.179-2.1-2.179h-78.37l-2.1 2.179-2.09-2.179h-78.38l-2.09 2.179-2.1-2.179h-78.37l-2.1 2.179-2.09-2.179h-78.378l-2.094 2.179-2.094-2.179h-78.377l-2.094 2.179-2.094-2.179h-78.163l-2.094 2.179-2.094-2.179h-78.377l-2.094 2.179-2.094-2.179h-78.377l-2.094 2.179-2.094-2.179h-78.376l-2.095 2.179-2.094-2.179h-78.376l-2.095 2.179-2.094-2.179h-78.376l-2.094 2.179-2.095-2.179h-78.376l-2.094 2.179-2.094-2.179h-78.377l-2.094 2.179-2.094-2.179H98.617l-2.094 2.179-2.094-2.179H16.052l-2.094 2.179-2.094-2.179h-78.377Zm412.824-.622h78.378l1.7-1.769v-80.487l-1.701-1.77h-78.376l-1.889 1.966v80.095l1.888 1.965Zm0-84.648h78.378l1.7-1.769v-80.487l-1.701-1.77h-78.376l-1.889 1.965v80.096l1.888 1.965Zm-2.487-1.769v-80.487l-1.701-1.77h-78.376l-1.889 1.965v82.061h80.266l1.7-1.769Zm-84.265-82.257 1.7 1.77v82.256h-80.077l-1.889-1.965v-80.096l1.889-1.965h78.377Zm1.7-2.391-1.7 1.769h-78.377l-1.889-1.965V594.95l1.889-1.965h78.377l1.7 1.77v80.487Zm2.488 1.769-1.889-1.965V594.95l1.889-1.965h78.376l1.701 1.77v80.487l-1.7 1.769h-78.377Zm82.564 0-1.888-1.965V594.95l1.889-1.965h78.376l1.701 1.77v80.487l-1.7 1.769h-78.378Zm82.565 0-1.888-1.965V594.95l1.889-1.965h78.376l1.701 1.77v80.487l-1.701 1.769h-78.377Zm-1.888 2.587 1.889-1.965h78.376l1.701 1.77v82.256h-80.078l-1.888-1.965v-80.096Zm0 84.649 1.889-1.966h80.077v82.257l-1.701 1.769h-78.377l-1.888-1.965v-80.095Zm84.453 82.06-1.889-1.965v-82.061h80.266l1.701 1.77v80.487l-1.701 1.769h-78.377Zm82.565 0-1.889-1.965v-80.095l1.889-1.966h78.377l1.701 1.77v80.487l-1.701 1.769h-78.377Zm82.565 0-1.889-1.965v-80.095l1.889-1.966h80.078v82.257l-1.701 1.769h-78.377Zm82.565 0-1.889-1.965v-82.061h80.052l1.795 1.867v80.292l-1.795 1.867h-78.163Zm-82.565-84.648h80.078v-82.256l-1.701-1.77h-78.377l-1.889 1.966v80.095l1.889 1.965Zm-2.487-1.769v-80.487l-1.701-1.77h-78.377l-1.889 1.966v80.095l1.889 1.965h78.377l1.701-1.769Zm-82.565 0v-80.487l-1.701-1.77h-78.376l-1.89 1.966v82.06h80.266l1.701-1.769Zm-80.078-82.879h78.377l1.701-1.769v-80.487l-1.701-1.77h-78.376l-1.89 1.965v80.096l1.889 1.965Zm0-84.648h78.377l1.701-1.769v-80.487l-1.701-1.77h-78.376l-1.89 1.965v80.096l1.889 1.965Zm-2.487-1.769v-80.487l-1.701-1.77h-78.376l-1.889 1.965v80.096l1.888 1.965h78.377l1.701-1.769Zm-82.565 0v-80.487l-1.701-1.77h-78.376l-1.889 1.965v80.096l1.888 1.965h78.378l1.7-1.769Zm-82.565 0v-80.487l-1.701-1.77h-78.376l-1.889 1.965v80.096l1.889 1.965h78.377l1.7-1.769Zm-82.565-.001v-80.486l-1.7-1.77h-78.377l-1.889 1.965v80.096l1.889 1.965h78.377l1.7-1.77Zm-82.564 0v-80.486l-1.701-1.77H98.617l-1.889 1.965v80.096l1.889 1.965h78.377l1.701-1.77Zm-1.701 2.392H98.617l-1.889 1.965v80.096l1.889 1.965h78.377l1.701-1.769v-80.487l-1.701-1.77Zm0 84.648H98.617l-1.889 1.965v80.096l1.889 1.965h78.377l1.701-1.769v-80.487l-1.701-1.77ZM96.13 759.89v-80.487l-1.701-1.77H16.052l-1.889 1.965v82.061H94.43l1.7-1.769Zm-84.266-82.257 1.7 1.77v82.256h-80.077l-1.889-1.965v-80.096l1.89-1.965h78.376Zm1.7-2.391-1.7 1.769h-78.377l-1.889-1.965V594.95l1.89-1.965h78.376l1.7 1.77v80.487Zm2.488 1.769-1.889-1.965V594.95l1.89-1.965h78.376l1.7 1.77v80.487l-1.7 1.769H16.052Zm80.078-86.418-1.701 1.77H16.052l-1.889-1.965v-82.061H94.43l1.7 1.77v80.486Zm0-84.648-1.701 1.77H14.163v-82.061l1.89-1.965h78.376l1.7 1.77v80.486Zm2.487 1.77-1.889-1.965v-80.096l1.89-1.965h78.376l1.701 1.77v80.486l-1.701 1.77H98.617Zm82.565 0-1.889-1.965v-80.096l1.889-1.965h78.376l1.701 1.77v80.486l-1.7 1.77h-78.377Zm82.565 0-1.889-1.965v-80.096l1.889-1.965h78.376l1.701 1.769v80.487l-1.7 1.77h-78.377Zm82.564 0-1.888-1.965v-80.096l1.889-1.965h78.376l1.701 1.769v80.487l-1.7 1.77h-78.378Zm82.565 0-1.888-1.965v-80.096l1.889-1.965h78.376l1.701 1.769v80.487l-1.701 1.77h-78.377Zm82.565 0-1.889-1.965v-80.096l1.89-1.965h78.376l1.701 1.769v80.487l-1.701 1.77h-78.377Zm82.565 0-1.889-1.965v-80.096l1.889-1.965h78.377l1.701 1.769v80.487l-1.701 1.77h-78.377Zm-1.889 2.587 1.889-1.965h78.377l1.701 1.77v80.487l-1.701 1.769h-78.377l-1.889-1.965v-80.096Zm0 84.648 1.889-1.965h78.377l1.701 1.77v80.487l-1.701 1.769h-78.377l-1.889-1.965V594.95Zm84.454 82.061-1.889-1.965V594.95l1.889-1.965h78.377l1.701 1.77v80.487l-1.701 1.769h-78.377Zm82.565 0-1.889-1.965V594.95l1.889-1.965h78.163l1.795 1.867v80.292l-1.795 1.867h-78.163Zm-1.889 2.588 1.889-1.966h78.163l1.795 1.867v80.292l-1.795 1.867h-80.052v-82.06Zm1.889-87.236h78.163l1.795-1.867v-80.292l-1.795-1.867h-80.052v82.061l1.889 1.965Zm-2.487-1.769v-82.257h-80.078l-1.889 1.965v80.096l1.889 1.965h78.377l1.701-1.769Zm-80.078-82.879h80.078v-82.257l-1.701-1.769h-78.377l-1.889 1.965v80.096l1.889 1.965Zm0-84.648h78.377l1.701-1.77V340.81l-1.701-1.769h-78.377l-1.889 1.965v80.096l1.889 1.965Zm-2.487-1.77V340.81l-1.701-1.769h-78.377l-1.889 1.965v80.096l1.889 1.965h78.377l1.701-1.77Zm-82.565 0V340.81l-1.701-1.769h-78.376l-1.89 1.965v80.096l1.889 1.965h78.377l1.701-1.77Zm-82.565 0V340.81l-1.701-1.769h-78.376l-1.889 1.965v80.096l1.888 1.965h78.377l1.701-1.77Zm-82.565 0V340.81l-1.701-1.769h-78.376l-1.889 1.965v80.096l1.888 1.965h78.378l1.7-1.77Zm-82.565 0V340.81l-1.701-1.769h-78.376l-1.889 1.965v80.096l1.889 1.965h78.377l1.7-1.77Zm-82.565 0v-80.486l-1.701-1.77h-78.376l-1.889 1.965v80.096l1.889 1.965h78.377l1.7-1.77Zm-82.564 0v-80.486l-1.701-1.77H98.617l-1.889 1.965v80.096l1.889 1.965h78.377l1.701-1.77Zm-82.565 0v-80.486l-1.701-1.77H16.052l-1.889 1.965v80.096l1.889 1.965h78.377l1.7-1.77Zm-82.565 0v-80.486l-1.701-1.77h-78.377l-1.889 1.965v80.096l1.889 1.965h78.377l1.7-1.77Zm-1.701 2.392h-78.377l-1.889 1.965v80.096l1.89 1.965h80.077v-82.256l-1.701-1.77Zm-80.266 86.613 1.89-1.965h80.077v82.256l-1.7 1.77h-78.378l-1.889-1.965v-80.096Zm1.889-171.883h78.377l1.7-1.77v-82.256h-80.077l-1.889 1.965v80.096l1.889 1.965Zm0-84.649h80.078v-82.256l-1.701-1.769h-78.377l-1.889 1.965v80.096l1.889 1.964Zm0-84.648h78.377l1.7-1.769V86.866l-1.7-1.77h-78.377l-1.889 1.966v80.096l1.889 1.964Zm0-84.648h78.377l1.7-1.769V.45h-80.077l-1.889 1.965V82.51l1.889 1.964Zm0-84.648h80.078V-82.43l-1.701-1.77h-78.377l-1.889 1.966V-2.14l1.889 1.965Zm80.676-82.06v82.06H94.43l1.7-1.769V-82.43l-1.7-1.77H16.052l-1.889 1.966Zm82.565 0V-2.14l1.889 1.965h78.377l1.701-1.769V-82.43l-1.701-1.77H98.617l-1.889 1.966Zm82.565 0v80.095l1.889 1.965h80.077V-82.43l-1.7-1.77h-78.377l-1.889 1.966Zm82.565 0v82.06h80.266l1.7-1.769V-82.43l-1.701-1.77h-78.376l-1.889 1.966Zm82.565 0v80.095l1.888 1.965h78.378l1.7-1.769V-82.43l-1.701-1.77h-78.376l-1.889 1.966Zm82.565 0v80.095l1.888 1.965h80.078V-82.43l-1.701-1.77h-78.376l-1.889 1.966Zm82.564 0v82.06h80.266l1.701-1.769V-82.43l-1.701-1.77h-78.376l-1.89 1.966Zm82.565 0v80.095l1.889 1.965h78.377l1.701-1.769V-82.43l-1.701-1.77h-78.377l-1.889 1.966Zm82.565 0v80.095l1.889 1.965h80.078V-82.43l-1.701-1.77h-78.377l-1.889 1.966Zm82.565 0v82.06h80.052l1.795-1.866v-80.292l-1.795-1.867h-78.163l-1.889 1.965ZM674.682 2.414 676.571.45h80.078v82.256l-1.701 1.77h-78.377l-1.889-1.966V2.414ZM672.383.45l1.701 1.77v80.486l-1.701 1.77h-78.377l-1.889-1.966V2.414L594.006.45h78.377Zm-82.565 0 1.701 1.77v80.486l-1.701 1.77h-78.377l-1.889-1.966V.45h80.266Zm-80.864 82.256V.45h-80.077l-1.889 1.965V82.51l1.888 1.965h78.377l1.701-1.769Zm-1.701 2.392h-78.376l-1.889 1.965v80.095l1.888 1.965h78.377l1.701-1.769V86.866l-1.701-1.77Zm2.299 1.965v80.095l1.889 1.965h78.377l1.701-1.769V86.866l-1.701-1.77h-78.376l-1.89 1.966Zm82.565 0v80.095l1.889 1.965h78.377l1.701-1.769V86.866l-1.701-1.77h-78.377l-1.889 1.966Zm82.565 0v80.095l1.889 1.965h78.377l1.701-1.769V86.866l-1.701-1.77h-78.377l-1.889 1.966Zm82.565 0v80.095l1.889 1.965h78.163l1.795-1.866V86.964l-1.795-1.867h-78.163l-1.889 1.965Zm1.889-2.588h78.163l1.795-1.866V2.316L837.299.449h-80.052v82.06l1.889 1.965Zm-1.889 87.236 1.889-1.965h78.163l1.795 1.867v80.292l-1.795 1.866h-80.052v-82.06Zm-2.299-1.965 1.701 1.769v82.256h-80.078l-1.889-1.965V171.71l1.889-1.965h78.377Zm-82.565 0 1.701 1.769v80.487l-1.701 1.769h-78.377l-1.889-1.965V171.71l1.889-1.965h78.377Zm-82.565 0 1.701 1.769v80.487l-1.701 1.769h-78.377l-1.889-1.965V171.71l1.89-1.965h78.376Zm-82.565 0 1.701 1.769v80.487l-1.701 1.769h-78.377l-1.888-1.964V171.71l1.889-1.965h78.376Zm-82.565 0 1.701 1.769v80.487l-1.7 1.769h-78.378l-1.888-1.964V171.71l1.889-1.965h78.376Zm1.701-2.392-1.7 1.769h-78.378l-1.888-1.965V87.062l1.889-1.965h78.376l1.701 1.77v80.486Zm0-84.648-1.7 1.77h-78.378l-1.888-1.966V2.414l1.889-1.965h78.376l1.701 1.77v80.486ZM342.123.45l1.701 1.77v80.486l-1.7 1.77h-78.377l-1.889-1.966V.45h80.265Zm-80.864 82.256V.45h-80.077l-1.889 1.965V82.51l1.889 1.965h78.377l1.7-1.769Zm-1.7 2.392h-78.377l-1.889 1.965v80.096l1.889 1.964h78.377l1.7-1.769V86.866l-1.7-1.77Zm2.299 1.965v80.096l1.889 1.964h78.377l1.7-1.769V86.866l-1.701-1.77h-78.376l-1.889 1.966Zm80.265 82.683h-78.376l-1.889 1.965v80.096l1.889 1.964h78.377l1.7-1.769v-80.487l-1.701-1.769Zm0 84.648h-78.376l-1.889 1.965v80.096l1.889 1.965h78.377l1.7-1.77v-80.487l-1.701-1.769Zm2.3 1.965v80.096l1.888 1.965h78.378l1.7-1.77v-80.487l-1.701-1.769h-78.376l-1.889 1.965Zm82.565 0v80.096l1.888 1.965h78.377l1.701-1.77v-80.487l-1.701-1.769h-78.376l-1.889 1.965Zm82.564 0v80.096l1.889 1.965h78.377l1.701-1.77v-80.487l-1.701-1.769h-78.376l-1.89 1.965Zm82.565 0v80.096l1.889 1.965h78.377l1.701-1.77v-80.487l-1.701-1.769h-78.377l-1.889 1.965Zm82.565 0v80.096l1.889 1.965h78.377l1.701-1.77v-82.256h-80.078l-1.889 1.965Zm84.454 82.061-1.889-1.965v-82.061h80.052l1.795 1.867v80.292l-1.795 1.867h-78.163Zm-1.889 2.587 1.889-1.965h78.163l1.795 1.867V421.2l-1.795 1.867h-78.163l-1.889-1.965v-80.096Zm0 84.648 1.889-1.965h78.163l1.795 1.867v80.292l-1.795 1.867h-80.052v-82.061ZM261.259 336.65v-80.487l-1.7-1.769h-78.377l-1.889 1.965v80.096l1.889 1.965h78.377l1.7-1.77Zm-82.564 0v-80.487l-1.701-1.769H98.617l-1.889 1.965v80.096l1.889 1.965h78.377l1.701-1.77Zm-82.565 0v-80.487l-1.701-1.769H14.163v82.061l1.889 1.965h78.377l1.7-1.77Zm0-84.648-1.7 1.769H14.162v-82.06l1.89-1.965h78.376l1.7 1.769v80.487Zm2.487 1.769-1.889-1.964V171.71l1.89-1.965h78.376l1.701 1.769v80.487l-1.701 1.769H98.617Zm82.565 0-1.889-1.964V171.71l1.889-1.965h78.376l1.701 1.769v80.487l-1.7 1.769h-78.377Zm-2.487-86.417-1.701 1.769H98.617l-1.889-1.964V87.062l1.89-1.965h78.376l1.701 1.77v80.486Zm0-84.648-1.701 1.77H98.617l-1.889-1.965V2.413l1.89-1.965h78.376l1.701 1.77v80.486ZM94.429.45l1.7 1.77v80.486l-1.7 1.77H16.052l-1.889-1.965V.448H94.43ZM14.163 87.062l1.89-1.965h78.376l1.7 1.77v80.486l-1.7 1.769H16.052l-1.889-1.964V87.062ZM1250.12 846.307h-78.37l-1.8-1.868v-82.158h80.17l1.8 1.867v80.292l-1.8 1.867Zm-80.77-84.026v82.159l-1.79 1.867h-78.38l-1.79-1.867v-80.291l1.79-1.868h80.17Zm-82.56 1.867v80.292l-1.8 1.867h-78.37l-1.8-1.868v-80.29l1.8-1.868h78.37l1.8 1.867Zm-82.57 0v80.292l-1.79 1.867h-78.378l-1.795-1.868v-82.158h80.173l1.79 1.867Zm-82.561-1.867v82.159l-1.795 1.867h-78.377l-1.795-1.868v-80.29l1.795-1.868h80.172Zm411.031 84.026h-78.38l-1.79-1.868v-80.29l1.79-1.868h78.38l1.79 1.867v80.292l-1.79 1.867Zm0-84.648h-78.38l-1.79-1.868v-80.29l1.79-1.868h78.38l1.79 1.867v80.292l-1.79 1.867Zm-80.77-82.159v80.292l-1.8 1.867h-80.17v-82.158l1.8-1.868h78.37l1.8 1.867Zm-82.57 0-1.79-1.867h-78.38l-1.79 1.868v80.291l1.79 1.867h80.17V679.5Zm-1.79-2.489 1.79-1.867v-80.292l-1.79-1.867h-78.38l-1.79 1.868v80.29l1.79 1.868h78.38Zm2.39-1.868 1.8 1.868h78.37l1.8-1.867v-80.292l-1.8-1.867h-78.37l-1.8 1.868v80.29Zm82.57 0 1.79 1.868h78.38l1.79-1.867v-80.292l-1.79-1.867h-78.38l-1.79 1.868v80.29Zm82.56 0 1.8 1.868h78.37l1.8-1.867v-80.292l-1.8-1.867h-78.37l-1.8 1.868v80.29Zm1.8 2.49-1.8 1.868v80.29l1.8 1.868h80.17V679.5l-1.8-1.867h-78.37Zm0 84.648-1.8 1.868v80.29l1.8 1.868h78.37l1.8-1.867v-82.159h-80.17Zm80.77 82.158 1.79 1.868h78.38l1.79-1.867v-80.292l-1.79-1.867h-80.17v82.158Zm82.56 0 1.8 1.868h78.37l1.8-1.867v-80.292l-1.8-1.867h-78.37l-1.8 1.868v80.29Zm82.57 0 1.79 1.868h78.38l1.79-1.867v-82.159h-80.17l-1.79 1.868v80.29Zm82.56 0 1.8 1.868h78.37l1.8-1.867v-80.292l-1.8-1.867h-80.17v82.158Zm80.17-82.78 1.8-1.867V679.5l-1.8-1.867h-78.37l-1.8 1.868v82.158h80.17Zm0-84.648 1.8-1.867v-80.292l-1.8-1.867h-78.37l-1.8 1.868v80.29l1.8 1.868h78.37Zm0-84.648 1.8-1.867v-80.292l-1.8-1.867h-80.17v82.158l1.8 1.868h78.37Zm0-84.648 1.8-1.867v-80.292l-1.8-1.867h-78.37l-1.8 1.868v82.158h80.17Zm0-84.648 1.8-1.867v-80.292l-1.8-1.867h-78.37l-1.8 1.868v80.29l1.8 1.868h78.37Zm0-84.648 1.8-1.867V256.26l-1.8-1.867h-80.17v82.158l1.8 1.868h78.37Zm0-84.648 1.8-1.867v-80.292l-1.8-1.867h-78.37l-1.8 1.868v82.158h80.17Zm0-84.649 1.8-1.866V86.964l-1.8-1.867h-78.37l-1.8 1.868v80.29l1.8 1.867h78.37Zm0-84.648 1.8-1.866V2.316l-1.8-1.867h-80.17v82.158l1.8 1.867h78.37Zm0-84.648 1.8-1.866v-80.292l-1.8-1.867h-78.37l-1.8 1.868V-.174h80.17Zm-80.77-82.158-1.79-1.867h-78.38l-1.79 1.867v80.29l1.79 1.868h80.17v-82.158Zm-82.56 0-1.8-1.867h-78.37l-1.8 1.867v80.29l1.8 1.868h78.37l1.8-1.866v-80.292Zm-82.57 0-1.79-1.867h-78.38l-1.79 1.867V-.174h80.17l1.79-1.866v-80.292Zm-82.56 0-1.8-1.867h-78.37l-1.8 1.867v80.29l1.8 1.868h80.17v-82.158Zm-82.57 0-1.79-1.867h-78.38l-1.79 1.867v80.29l1.79 1.868h78.38l1.79-1.866v-80.292Zm-82.56 0-1.8-1.867h-78.37l-1.8 1.867V-.174h80.17l1.8-1.866v-80.292Zm-82.57 0-1.79-1.867h-78.38l-1.79 1.867V-2.04l1.79 1.867h80.17v-82.158Zm-82.56 0-1.8-1.867h-78.37l-1.8 1.867v80.29l1.8 1.868h78.37l1.8-1.866v-80.292Zm-82.57 0-1.79-1.867h-78.378l-1.795 1.867V-.174h80.173l1.79-1.866v-80.292Zm-82.561 0-1.795-1.867h-78.377l-1.795 1.867v80.29l1.795 1.868h80.172v-82.158ZM841.487.448l-1.795 1.868v80.291l1.795 1.867h78.377l1.795-1.866V.448h-80.172Zm0 84.649-1.795 1.868v80.29l1.795 1.867h78.377l1.795-1.866V86.964l-1.795-1.867h-78.377Zm0 84.648-1.795 1.868v80.29l1.795 1.868h80.172v-82.159l-1.795-1.867h-78.377Zm0 84.648-1.795 1.868v80.29l1.795 1.868h78.377l1.795-1.867v-82.159h-80.172Zm0 84.648-1.795 1.868v80.29l1.795 1.868h78.377l1.795-1.867v-80.292l-1.795-1.867h-78.377Zm0 84.648-1.795 1.868v80.29l1.795 1.868h80.172v-82.159l-1.795-1.867h-78.377Zm0 84.648-1.795 1.868v80.29l1.795 1.868h78.377l1.795-1.867v-82.159h-80.172Zm0 84.648-1.795 1.868v80.29l1.795 1.868h78.377l1.795-1.867v-80.292l-1.795-1.867h-78.377Zm0 84.648-1.795 1.868v80.29l1.795 1.868h80.172V679.5l-1.795-1.867h-78.377Zm80.77 84.026v-82.158l1.795-1.868h78.378l1.79 1.867v80.292l-1.79 1.867h-80.173Zm80.173-84.648h-78.378l-1.795-1.868v-80.29l1.795-1.868h78.378l1.79 1.867v80.292l-1.79 1.867Zm0-84.648h-78.378l-1.795-1.868v-82.158h80.173l1.79 1.867v80.292l-1.79 1.867Zm0-84.648 1.79-1.867v-80.292l-1.79-1.867h-78.378l-1.795 1.868v82.158h80.173Zm2.39-1.868 1.8 1.868h78.37l1.8-1.867v-80.292l-1.8-1.867h-78.37l-1.8 1.868v80.29Zm1.8 2.49-1.8 1.868v80.29l1.8 1.868h78.37l1.8-1.867v-80.292l-1.8-1.867h-78.37Zm0 84.648-1.8 1.868v80.29l1.8 1.868h78.37l1.8-1.867v-80.292l-1.8-1.867h-78.37Zm0 84.648-1.8 1.868v80.29l1.8 1.868h78.37l1.8-1.867V679.5l-1.8-1.867h-78.37Zm80.77-87.138 1.79 1.868h78.38l1.79-1.867v-80.292l-1.79-1.867h-78.38l-1.79 1.868v80.29Zm82.56 0 1.8 1.868h78.37l1.8-1.867v-80.292l-1.8-1.867h-78.37l-1.8 1.868v80.29Zm82.57 0 1.79 1.868h78.38l1.79-1.867v-80.292l-1.79-1.867h-78.38l-1.79 1.868v80.29Zm82.56 0 1.8 1.868h78.37l1.8-1.867v-80.292l-1.8-1.867h-78.37l-1.8 1.868v80.29Zm82.57 0 1.79 1.868h78.38l1.79-1.867v-80.292l-1.79-1.867h-78.38l-1.79 1.868v80.29Zm1.79 2.49-1.79 1.868v80.29l1.79 1.868h78.38l1.79-1.867v-80.292l-1.79-1.867h-78.38Zm0 84.648-1.79 1.868v82.158h80.17l1.79-1.867V679.5l-1.79-1.867h-78.38Zm80.77 82.158 1.8 1.868h78.37l1.8-1.867V679.5l-1.8-1.867h-78.37l-1.8 1.868v80.29Zm82.57 0 1.79 1.868h80.17V679.5l-1.79-1.867h-78.38l-1.79 1.868v80.29Zm80.17-82.78 1.79-1.867v-80.292l-1.79-1.867h-78.38l-1.79 1.868v80.29l1.79 1.868h78.38Zm0-84.648 1.79-1.867v-82.159h-80.17l-1.79 1.868v80.29l1.79 1.868h78.38Zm1.79-84.648h-80.17l-1.79-1.868v-80.29l1.79-1.868h78.38l1.79 1.867v82.159Zm-82.56-82.159v80.292l-1.8 1.867h-78.37l-1.8-1.868v-80.29l1.8-1.868h78.37l1.8 1.867Zm-80.17 82.781h78.37l1.8 1.867v80.292l-1.8 1.867h-78.37l-1.8-1.868v-80.29l1.8-1.868Zm0 84.648h78.37l1.8 1.867v80.292l-1.8 1.867h-78.37l-1.8-1.868v-80.29l1.8-1.868Zm-2.4-167.429v80.292l-1.79 1.867h-78.38l-1.79-1.868v-80.29l1.79-1.868h78.38l1.79 1.867Zm-82.56 0v80.292l-1.8 1.867h-78.37l-1.8-1.868v-80.29l1.8-1.868h78.37l1.8 1.867Zm-82.57 0v80.292l-1.79 1.867h-78.38l-1.79-1.868v-80.29l1.79-1.868h78.38l1.79 1.867Zm-82.56 0v80.292l-1.8 1.867h-78.37l-1.8-1.868v-80.29l1.8-1.868h78.37l1.8 1.867Zm-82.57 0v80.292l-1.79 1.867h-78.38l-1.79-1.868v-80.29l1.79-1.868h78.38l1.79 1.867Zm-1.79-2.489h-78.38l-1.79-1.868v-80.29l1.79-1.868h78.38l1.79 1.867V421.2l-1.79 1.867Zm-80.77-82.159V421.2l-1.8 1.867h-78.37l-1.8-1.868v-80.29l1.8-1.868h78.37l1.8 1.867Zm-82.57 0V421.2l-1.79 1.867h-78.378l-1.795-1.868v-80.29l1.795-1.868h78.378l1.79 1.867Zm-1.79-2.489h-78.378l-1.795-1.868v-82.158h80.173l1.79 1.867v80.292l-1.79 1.867Zm0-84.648 1.79-1.867v-80.292l-1.79-1.867h-78.378l-1.795 1.868v82.158h80.173Zm2.39-1.868 1.8 1.868h78.37l1.8-1.867v-80.292l-1.8-1.867h-78.37l-1.8 1.868v80.29Zm1.8 2.49-1.8 1.868v80.29l1.8 1.868h78.37l1.8-1.867V256.26l-1.8-1.867h-78.37Zm80.77 82.158 1.79 1.868h78.38l1.79-1.867V256.26l-1.79-1.867h-78.38l-1.79 1.867v80.291Zm82.56 0 1.8 1.868h78.37l1.8-1.867V256.26l-1.8-1.867h-78.37l-1.8 1.868v80.29Zm1.8 2.49-1.8 1.868v80.29l1.8 1.868h78.37l1.8-1.867v-80.292l-1.8-1.867h-78.37Zm80.77 82.158 1.79 1.868h78.38l1.79-1.867v-80.292l-1.79-1.867h-78.38l-1.79 1.868v80.29Zm82.56 0 1.8 1.868h78.37l1.8-1.867v-80.292l-1.8-1.867h-78.37l-1.8 1.868v80.29Zm82.57 0 1.79 1.868h78.38l1.79-1.867v-80.292l-1.79-1.867h-78.38l-1.79 1.868v80.29Zm82.56 0 1.8 1.868h78.37l1.8-1.867v-80.292l-1.8-1.867h-78.37l-1.8 1.868v80.29Zm82.57 0 1.79 1.868h78.38l1.79-1.867v-80.292l-1.79-1.867h-78.38l-1.79 1.868v80.29Zm80.17-82.78 1.79-1.867v-82.159h-80.17l-1.79 1.868v80.29l1.79 1.868h78.38Zm1.79-84.648h-80.17l-1.79-1.868v-80.29l1.79-1.868h78.38l1.79 1.867v82.159Zm-82.56-82.159v80.292l-1.8 1.867h-78.37l-1.8-1.868v-80.29l1.8-1.868h78.37l1.8 1.867Zm-80.17 82.781h78.37l1.8 1.867v80.292l-1.8 1.867h-78.37l-1.8-1.868v-80.29l1.8-1.868Zm-2.4 1.867v80.292l-1.79 1.867h-78.38l-1.79-1.868v-80.29l1.79-1.868h78.38l1.79 1.867Zm-82.56 0v80.292l-1.8 1.867h-78.37l-1.8-1.868v-80.29l1.8-1.868h78.37l1.8 1.867Zm-82.57 0v80.292l-1.79 1.867h-78.38l-1.79-1.868v-80.29l1.79-1.868h78.38l1.79 1.867Zm-1.79-2.489h-78.38l-1.79-1.868v-80.29l1.79-1.868h78.38l1.79 1.867v80.292l-1.79 1.867Zm-80.77-82.159v80.292l-1.8 1.867h-78.37l-1.8-1.868v-80.29l1.8-1.868h78.37l1.8 1.867Zm-82.57 0v80.292l-1.79 1.867h-78.38l-1.79-1.868v-80.291l1.79-1.867h78.38l1.79 1.867Zm-1.79-2.49h-78.38l-1.79-1.867v-80.29l1.79-1.868h78.38l1.79 1.867v80.292l-1.79 1.866Zm-80.77-82.158v80.292l-1.8 1.866h-78.37l-1.8-1.867v-80.29l1.8-1.868h78.37l1.8 1.867Zm-82.57 0v80.292l-1.79 1.866h-78.378l-1.795-1.867v-80.29l1.795-1.868h78.378l1.79 1.867Zm-1.79-2.49h-78.378l-1.795-1.867V.449h80.173l1.79 1.867v80.292l-1.79 1.866Zm2.39-1.867V2.317l1.8-1.868h78.37l1.8 1.867v80.292l-1.8 1.866h-78.37l-1.8-1.867Zm82.57 0V2.317l1.79-1.868h80.17v82.159l-1.79 1.866h-78.38l-1.79-1.867Zm82.56 0 1.8 1.867h78.37l1.8-1.866V2.316l-1.8-1.867h-80.17v82.158Zm1.8 2.49-1.8 1.868v80.29l1.8 1.867h78.37l1.8-1.866V86.964l-1.8-1.867h-78.37Zm80.77 82.158 1.79 1.867h78.38l1.79-1.866V86.964l-1.79-1.867h-78.38l-1.79 1.868v80.29Zm82.56 0 1.8 1.867h78.37l1.8-1.866V86.964l-1.8-1.867h-78.37l-1.8 1.868v80.29Zm1.8 2.49-1.8 1.868v80.29l1.8 1.868h78.37l1.8-1.867v-80.292l-1.8-1.867h-78.37Zm80.77 82.158 1.79 1.868h78.38l1.79-1.867v-80.292l-1.79-1.867h-78.38l-1.79 1.868v80.29Zm80.17-82.781 1.79-1.866V86.964l-1.79-1.867h-78.38l-1.79 1.868v80.29l1.79 1.867h78.38Zm2.39-1.867 1.8 1.867h78.37l1.8-1.866V86.964l-1.8-1.867h-78.37l-1.8 1.868v80.29Zm82.57 0 1.79 1.867h78.38l1.79-1.866V86.964l-1.79-1.867h-78.38l-1.79 1.868v80.29Zm80.17-82.78 1.79-1.867V.448h-80.17l-1.79 1.868v80.291l1.79 1.867h78.38Zm-80.77-82.16-1.8-1.866h-78.37l-1.8 1.867v80.291l1.8 1.867h78.37l1.8-1.866V2.316Zm-82.57 0L1497.82.45h-80.17v82.158l1.79 1.867h78.38l1.79-1.866V2.316ZM1417.05.45v82.159l-1.8 1.866h-78.37l-1.8-1.867V2.317l1.8-1.868h80.17Zm-82.57 1.867v80.292l-1.79 1.866h-78.38l-1.79-1.867V2.317l1.79-1.868h78.38l1.79 1.867Zm-39.18 378.738-1.8-1.867-1.79 1.867 1.79 1.867 1.8-1.867Zm-1.8 86.515-1.79-1.867 1.79-1.867 1.8 1.867-1.8 1.867Zm0 84.648-1.79-1.867 1.79-1.867 1.8 1.867-1.8 1.867Zm0 84.648-1.79-1.867 1.79-1.867 1.8 1.867-1.8 1.867Zm0 84.649-1.79-1.868 1.79-1.867 1.8 1.867-1.8 1.868Zm0 84.648-1.79-1.868 1.79-1.867 1.8 1.867-1.8 1.868Zm0-507.889-1.79-1.867 1.79-1.867 1.8 1.867-1.8 1.867Zm0-84.648-1.79-1.867 1.79-1.867 1.8 1.867-1.8 1.867Zm0-84.648-1.79-1.867 1.79-1.867 1.8 1.867-1.8 1.867Zm0-84.648-1.79-1.867 1.79-1.867 1.8 1.867-1.8 1.867Zm0-84.648-1.79-1.867 1.79-1.867 1.8 1.867-1.8 1.867Zm-82.56 423.24-1.8-1.867 1.8-1.867 1.79 1.867-1.79 1.867Zm0 84.648-1.8-1.867 1.8-1.867 1.79 1.867-1.79 1.867Zm0 84.648-1.8-1.867 1.8-1.867 1.79 1.867-1.79 1.867Zm0 84.648-1.8-1.867 1.8-1.867 1.79 1.867-1.79 1.867Zm0 84.649-1.8-1.868 1.8-1.867 1.79 1.867-1.79 1.868Zm0 84.648-1.8-1.868 1.8-1.867 1.79 1.867-1.79 1.868Zm0-507.889-1.8-1.867 1.8-1.867 1.79 1.867-1.79 1.867Zm0-84.648-1.8-1.867 1.8-1.867 1.79 1.867-1.79 1.867Zm0-84.648-1.8-1.867 1.8-1.867 1.79 1.867-1.79 1.867Zm0-84.648-1.8-1.867 1.8-1.867 1.79 1.867-1.79 1.867Zm0-84.648-1.8-1.867 1.8-1.867 1.79 1.867-1.79 1.867Zm-82.57 423.24-1.79-1.867 1.79-1.867 1.8 1.867-1.8 1.867Zm0 84.648-1.79-1.867 1.79-1.867 1.8 1.867-1.8 1.867Zm0 84.648-1.79-1.867 1.79-1.867 1.8 1.867-1.8 1.867Zm0 84.648-1.79-1.867 1.79-1.867 1.8 1.867-1.8 1.867Zm0 84.649-1.79-1.868 1.79-1.867 1.8 1.867-1.8 1.868Zm0 84.648-1.79-1.868 1.79-1.867 1.8 1.867-1.8 1.868Zm0-507.889-1.79-1.867 1.79-1.867 1.8 1.867-1.8 1.867Zm0-84.648-1.79-1.867 1.79-1.867 1.8 1.867-1.8 1.867Zm0-84.648-1.79-1.867 1.79-1.867 1.8 1.867-1.8 1.867Zm0-84.648-1.79-1.867 1.79-1.867 1.8 1.867-1.8 1.867Zm0-84.648-1.79-1.867 1.79-1.867 1.8 1.867-1.8 1.867Zm-82.56 423.24-1.8-1.867 1.8-1.867 1.79 1.867-1.79 1.867Zm0 84.648-1.8-1.867 1.8-1.867 1.79 1.867-1.79 1.867Zm0 84.648-1.8-1.867 1.8-1.867 1.79 1.867-1.79 1.867Zm0 84.648-1.8-1.867 1.8-1.867 1.79 1.867-1.79 1.867Zm0 84.649-1.8-1.868 1.8-1.867 1.79 1.867-1.79 1.868Zm0 84.648-1.8-1.868 1.8-1.867 1.79 1.867-1.79 1.868Zm0-507.889-1.8-1.867 1.8-1.867 1.79 1.867-1.79 1.867Zm0-84.648-1.8-1.867 1.8-1.867 1.79 1.867-1.79 1.867Zm0-84.648-1.8-1.867 1.8-1.867 1.79 1.867-1.79 1.867Zm0-84.648-1.8-1.867 1.8-1.867 1.79 1.867-1.79 1.867Zm0-84.648-1.8-1.867 1.8-1.867 1.79 1.867-1.79 1.867Zm-82.569 423.24-1.795-1.867 1.795-1.867 1.795 1.867-1.795 1.867Zm0 84.648-1.795-1.867 1.795-1.867 1.795 1.867-1.795 1.867Zm0 84.648-1.795-1.867 1.795-1.867 1.795 1.867-1.795 1.867Zm0 84.648-1.795-1.867 1.795-1.867 1.795 1.867-1.795 1.867Zm0 84.649-1.795-1.868 1.795-1.867 1.795 1.867-1.795 1.868Zm0 84.648-1.795-1.868 1.795-1.867 1.795 1.867-1.795 1.868Zm0-507.889-1.795-1.867 1.795-1.867 1.795 1.867-1.795 1.867Zm0-84.648-1.795-1.867 1.795-1.867 1.795 1.867-1.795 1.867Zm0-84.648-1.795-1.867 1.795-1.867 1.795 1.867-1.795 1.867Zm0-84.648-1.795-1.867 1.795-1.867 1.795 1.867-1.795 1.867Zm0-84.648-1.795-1.867 1.795-1.867 1.795 1.867-1.795 1.867Zm-82.565 423.24-1.795-1.867 1.795-1.867 1.795 1.867-1.795 1.867Zm0 84.648-1.795-1.867 1.795-1.867 1.795 1.867-1.795 1.867Zm0 84.648-1.795-1.867 1.795-1.867 1.795 1.867-1.795 1.867Zm0 84.648-1.795-1.867 1.795-1.867 1.795 1.867-1.795 1.867Zm0 84.649-1.795-1.868 1.795-1.867 1.795 1.867-1.795 1.868Zm0 84.648-1.795-1.868 1.795-1.867 1.795 1.867-1.795 1.868Zm0-507.889-1.795-1.867 1.795-1.867 1.795 1.867-1.795 1.867Zm0-84.648-1.795-1.867 1.795-1.867 1.795 1.867-1.795 1.867Zm0-84.648-1.795-1.867 1.795-1.867 1.795 1.867-1.795 1.867Zm0-84.648-1.795-1.867 1.795-1.867 1.795 1.867-1.795 1.867Zm0-84.648-1.795-1.867 1.795-1.867 1.795 1.867-1.795 1.867Zm495.384 423.24-1.79-1.867 1.79-1.867 1.8 1.867-1.8 1.867Zm0 84.648-1.79-1.867 1.79-1.867 1.8 1.867-1.8 1.867Zm0 84.648-1.79-1.867 1.79-1.867 1.8 1.867-1.8 1.867Zm0 84.648-1.79-1.867 1.79-1.867 1.8 1.867-1.8 1.867Zm0 84.649-1.79-1.868 1.79-1.867 1.8 1.867-1.8 1.868Zm0 84.648-1.79-1.868 1.79-1.867 1.8 1.867-1.8 1.868Zm0-507.889-1.79-1.867 1.79-1.867 1.8 1.867-1.8 1.867Zm0-84.648-1.79-1.867 1.79-1.867 1.8 1.867-1.8 1.867Zm0-84.648-1.79-1.867 1.79-1.867 1.8 1.867-1.8 1.867Zm0-84.648-1.79-1.867 1.79-1.867 1.8 1.867-1.8 1.867Zm0-84.648-1.79-1.867 1.79-1.867 1.8 1.867-1.8 1.867Zm82.57 423.24-1.8-1.867 1.8-1.867 1.79 1.867-1.79 1.867Zm0 84.648-1.8-1.867 1.8-1.867 1.79 1.867-1.79 1.867Zm0 84.648-1.8-1.867 1.8-1.867 1.79 1.867-1.79 1.867Zm0 84.648-1.8-1.867 1.8-1.867 1.79 1.867-1.79 1.867Zm0 84.649-1.8-1.868 1.8-1.867 1.79 1.867-1.79 1.868Zm0 84.648-1.8-1.868 1.8-1.867 1.79 1.867-1.79 1.868Zm0-507.889-1.8-1.867 1.8-1.867 1.79 1.867-1.79 1.867Zm0-84.648-1.8-1.867 1.8-1.867 1.79 1.867-1.79 1.867Zm0-84.648-1.8-1.867 1.8-1.867 1.79 1.867-1.79 1.867Zm0-84.648-1.8-1.867 1.8-1.867 1.79 1.867-1.79 1.867Zm0-84.648-1.8-1.867 1.8-1.867 1.79 1.867-1.79 1.867Zm82.56 423.24-1.79-1.867 1.79-1.867 1.8 1.867-1.8 1.867Zm0 84.648-1.79-1.867 1.79-1.867 1.8 1.867-1.8 1.867Zm0 84.648-1.79-1.867 1.79-1.867 1.8 1.867-1.8 1.867Zm0 84.648-1.79-1.867 1.79-1.867 1.8 1.867-1.8 1.867Zm0 84.649-1.79-1.868 1.79-1.867 1.8 1.867-1.8 1.868Zm0 84.648-1.79-1.868 1.79-1.867 1.8 1.867-1.8 1.868Zm0-507.889-1.79-1.867 1.79-1.867 1.8 1.867-1.8 1.867Zm0-84.648-1.79-1.867 1.79-1.867 1.8 1.867-1.8 1.867Zm0-84.648-1.79-1.867 1.79-1.867 1.8 1.867-1.8 1.867Zm0-84.648-1.79-1.867 1.79-1.867 1.8 1.867-1.8 1.867Zm0-84.648-1.79-1.867 1.79-1.867 1.8 1.867-1.8 1.867Zm82.57 423.24-1.8-1.867 1.8-1.867 1.79 1.867-1.79 1.867Zm0 84.648-1.8-1.867 1.8-1.867 1.79 1.867-1.79 1.867Zm0 84.648-1.8-1.867 1.8-1.867 1.79 1.867-1.79 1.867Zm0 84.648-1.8-1.867 1.8-1.867 1.79 1.867-1.79 1.867Zm0 84.649-1.8-1.868 1.8-1.867 1.79 1.867-1.79 1.868Zm0 84.648-1.8-1.868 1.8-1.867 1.79 1.867-1.79 1.868Zm0-507.889-1.8-1.867 1.8-1.867 1.79 1.867-1.79 1.867Zm0-84.648-1.8-1.867 1.8-1.867 1.79 1.867-1.79 1.867Zm0-84.648-1.8-1.867 1.8-1.867 1.79 1.867-1.79 1.867Zm0-84.648-1.8-1.867 1.8-1.867 1.79 1.867-1.79 1.867Zm0-84.648-1.8-1.867 1.8-1.867 1.79 1.867-1.79 1.867Zm82.56 423.24-1.79-1.867 1.79-1.867 1.8 1.867-1.8 1.867Zm0 84.648-1.79-1.867 1.79-1.867 1.8 1.867-1.8 1.867Zm0 84.648-1.79-1.867 1.79-1.867 1.8 1.867-1.8 1.867Zm0 84.648-1.79-1.867 1.79-1.867 1.8 1.867-1.8 1.867Zm0 84.649-1.79-1.868 1.79-1.867 1.8 1.867-1.8 1.868Zm0 84.648-1.79-1.868 1.79-1.867 1.8 1.867-1.8 1.868Zm0-507.889-1.79-1.867 1.79-1.867 1.8 1.867-1.8 1.867Zm0-84.648-1.79-1.867 1.79-1.867 1.8 1.867-1.8 1.867Zm0-84.648-1.79-1.867 1.79-1.867 1.8 1.867-1.8 1.867Zm0-84.648-1.79-1.867 1.79-1.867 1.8 1.867-1.8 1.867Zm0-84.648-1.79-1.867 1.79-1.867 1.8 1.867-1.8 1.867ZM385.5 379.187l1.795 1.867-1.795 1.867-1.795-1.867 1.795-1.867Zm-1.795 86.515 1.795 1.867 1.795-1.867-1.795-1.867-1.795 1.867Zm0 84.648 1.795 1.867 1.795-1.867-1.795-1.867-1.795 1.867Zm0 84.648 1.795 1.867 1.795-1.867-1.795-1.867-1.795 1.867Zm0 84.648 1.795 1.868 1.795-1.868-1.795-1.867-1.795 1.867Zm0 84.648 1.795 1.868 1.795-1.868-1.795-1.867-1.795 1.867Zm0-507.888 1.795 1.867 1.795-1.867-1.795-1.867-1.795 1.867Zm0-84.648 1.795 1.867 1.795-1.867-1.795-1.867-1.795 1.867Zm0-84.648 1.795 1.867 1.795-1.867-1.795-1.867-1.795 1.867Zm0-84.648 1.795 1.867 1.795-1.867-1.795-1.867-1.795 1.867Zm0-84.648 1.795 1.867 1.795-1.867-1.795-1.867-1.795 1.867Zm-82.565 423.24 1.795 1.867 1.795-1.867-1.795-1.867-1.795 1.867Zm0 84.648 1.795 1.867 1.795-1.867-1.795-1.867-1.795 1.867Zm0 84.648 1.795 1.867 1.795-1.867-1.795-1.867-1.795 1.867Zm0 84.648 1.795 1.867 1.795-1.867-1.795-1.867-1.795 1.867Zm0 84.648 1.795 1.868 1.795-1.868-1.795-1.867-1.795 1.867Zm0 84.648 1.795 1.868 1.795-1.868-1.795-1.867-1.795 1.867Zm0-507.888 1.795 1.867 1.795-1.867-1.795-1.867-1.795 1.867Zm0-84.648 1.795 1.867 1.795-1.867-1.795-1.867-1.795 1.867Zm0-84.648 1.795 1.867 1.795-1.867-1.795-1.867-1.795 1.867Zm0-84.648 1.795 1.867 1.795-1.867-1.795-1.867-1.795 1.867Zm0-84.648 1.795 1.867 1.795-1.867-1.795-1.867-1.795 1.867Zm-82.565 423.24 1.795 1.867 1.795-1.867-1.795-1.867-1.795 1.867Zm0 84.648 1.795 1.867 1.795-1.867-1.795-1.867-1.795 1.867Zm0 84.648 1.795 1.867 1.795-1.867-1.795-1.867-1.795 1.867Zm0 84.648 1.795 1.867 1.795-1.867-1.795-1.867-1.795 1.867Zm0 84.648 1.795 1.868 1.795-1.868-1.795-1.867-1.795 1.867Zm0 84.648 1.795 1.868 1.795-1.868-1.795-1.867-1.795 1.867Zm0-507.888 1.795 1.867 1.795-1.867-1.795-1.867-1.795 1.867Zm0-84.648 1.795 1.867 1.795-1.867-1.795-1.867-1.795 1.867Zm0-84.648 1.795 1.867 1.795-1.867-1.795-1.867-1.795 1.867Zm0-84.648 1.795 1.867 1.795-1.867-1.795-1.867-1.795 1.867Zm0-84.648 1.795 1.867 1.795-1.867-1.795-1.867-1.795 1.867Zm-82.564 423.24 1.794 1.867 1.795-1.867-1.795-1.867-1.794 1.867Zm0 84.648 1.794 1.867 1.795-1.867-1.795-1.867-1.794 1.867Zm0 84.648 1.794 1.867 1.795-1.867-1.795-1.867-1.794 1.867Zm0 84.648 1.794 1.867 1.795-1.867-1.795-1.867-1.794 1.867Zm0 84.648 1.794 1.868 1.795-1.868-1.795-1.867-1.794 1.867Zm0 84.648 1.794 1.868 1.795-1.868-1.795-1.867-1.794 1.867Zm0-507.888 1.794 1.867 1.795-1.867-1.795-1.867-1.794 1.867Zm0-84.648 1.794 1.867 1.795-1.867-1.795-1.867-1.794 1.867Zm0-84.648 1.794 1.867 1.795-1.867-1.795-1.867-1.794 1.867Zm0-84.648 1.794 1.867 1.795-1.867-1.795-1.867-1.794 1.867Zm0-84.648 1.794 1.867 1.795-1.867-1.795-1.867-1.794 1.867Zm-82.565 423.24 1.795 1.867 1.794-1.867-1.794-1.867-1.795 1.867Zm0 84.648 1.795 1.867 1.794-1.867-1.794-1.867-1.795 1.867Zm0 84.648 1.795 1.867 1.794-1.867-1.794-1.867-1.795 1.867Zm0 84.648 1.795 1.867 1.794-1.867-1.794-1.867-1.795 1.867Zm0 84.648 1.795 1.868 1.794-1.868-1.794-1.867-1.795 1.867Zm0 84.648 1.795 1.868 1.794-1.868-1.794-1.867-1.795 1.867Zm0-507.888 1.795 1.867 1.794-1.867-1.794-1.867-1.795 1.867Zm0-84.648 1.795 1.867 1.794-1.867-1.794-1.867-1.795 1.867Zm0-84.648 1.795 1.867 1.794-1.867-1.794-1.867-1.795 1.867Zm0-84.648 1.795 1.867 1.794-1.867-1.794-1.867-1.795 1.867Zm0-84.648 1.795 1.867 1.794-1.867-1.794-1.867-1.795 1.867Zm-82.565 423.24 1.795 1.867 1.795-1.867-1.795-1.867-1.795 1.867Zm0 84.648 1.795 1.867 1.795-1.867-1.795-1.867-1.795 1.867Zm0 84.648 1.795 1.867 1.795-1.867-1.795-1.867-1.795 1.867Zm0 84.648 1.795 1.867 1.795-1.867-1.795-1.867-1.795 1.867Zm0 84.648 1.795 1.868 1.795-1.868-1.795-1.867-1.795 1.867Zm0 84.648 1.795 1.868 1.795-1.868-1.795-1.867-1.795 1.867Zm0-507.888 1.795 1.867 1.795-1.867-1.795-1.867-1.795 1.867Zm0-84.648 1.795 1.867 1.795-1.867-1.795-1.867-1.795 1.867Zm0-84.648 1.795 1.867 1.795-1.867-1.795-1.867-1.795 1.867Zm0-84.648 1.795 1.867 1.795-1.867-1.795-1.867-1.795 1.867Zm0-84.648 1.795 1.867 1.795-1.867-1.795-1.867-1.795 1.867Zm495.389 423.24 1.795 1.867 1.795-1.867-1.795-1.867-1.795 1.867Zm0 84.648 1.795 1.867 1.795-1.867-1.795-1.867-1.795 1.867Zm0 84.648 1.795 1.867 1.795-1.867-1.795-1.867-1.795 1.867Zm0 84.648 1.795 1.867 1.795-1.867-1.795-1.867-1.795 1.867Zm0 84.648 1.795 1.868 1.795-1.868-1.795-1.867-1.795 1.867Zm0 84.648 1.795 1.868 1.795-1.868-1.795-1.867-1.795 1.867Zm0-507.888 1.795 1.867 1.795-1.867-1.795-1.867-1.795 1.867Zm0-84.648 1.795 1.867 1.795-1.867-1.795-1.867-1.795 1.867Zm0-84.648 1.795 1.867 1.795-1.867-1.795-1.867-1.795 1.867Zm0-84.648 1.795 1.867 1.795-1.867-1.795-1.867-1.795 1.867Zm0-84.648 1.795 1.867 1.795-1.867-1.795-1.867-1.795 1.867Zm82.565 423.24 1.795 1.867 1.795-1.867-1.795-1.867-1.795 1.867Zm0 84.648 1.795 1.867 1.795-1.867-1.795-1.867-1.795 1.867Zm0 84.648 1.795 1.867 1.795-1.867-1.795-1.867-1.795 1.867Zm0 84.648 1.795 1.867 1.795-1.867-1.795-1.867-1.795 1.867Zm0 84.648 1.795 1.868 1.795-1.868-1.795-1.867-1.795 1.867Zm0 84.648 1.795 1.868 1.795-1.868-1.795-1.867-1.795 1.867Zm0-507.888 1.795 1.867 1.795-1.867-1.795-1.867-1.795 1.867Zm0-84.648 1.795 1.867 1.795-1.867-1.795-1.867-1.795 1.867Zm0-84.648 1.795 1.867 1.795-1.867-1.795-1.867-1.795 1.867Zm0-84.648 1.795 1.867 1.795-1.867-1.795-1.867-1.795 1.867Zm0-84.648 1.795 1.867 1.795-1.867-1.795-1.867-1.795 1.867Zm82.565 423.24 1.795 1.867 1.795-1.867-1.795-1.867-1.795 1.867Zm0 84.648 1.795 1.867 1.795-1.867-1.795-1.867-1.795 1.867Zm0 84.648 1.795 1.867 1.795-1.867-1.795-1.867-1.795 1.867Zm0 84.648 1.795 1.867 1.795-1.867-1.795-1.867-1.795 1.867Zm0 84.648 1.795 1.868 1.795-1.868-1.795-1.867-1.795 1.867Zm0 84.648 1.795 1.868 1.795-1.868-1.795-1.867-1.795 1.867Zm0-507.888 1.795 1.867 1.795-1.867-1.795-1.867-1.795 1.867Zm0-84.648 1.795 1.867 1.795-1.867-1.795-1.867-1.795 1.867Zm0-84.648 1.795 1.867 1.795-1.867-1.795-1.867-1.795 1.867Zm0-84.648 1.795 1.867 1.795-1.867-1.795-1.867-1.795 1.867Zm0-84.648 1.795 1.867 1.795-1.867-1.795-1.867-1.795 1.867Zm82.565 423.24 1.795 1.867 1.794-1.867-1.794-1.867-1.795 1.867Zm0 84.648 1.795 1.867 1.794-1.867-1.794-1.867-1.795 1.867Zm0 84.648 1.795 1.867 1.794-1.867-1.794-1.867-1.795 1.867Zm0 84.648 1.795 1.867 1.794-1.867-1.794-1.867-1.795 1.867Zm0 84.648 1.795 1.868 1.794-1.868-1.794-1.867-1.795 1.867Zm0 84.648 1.795 1.868 1.794-1.868-1.794-1.867-1.795 1.867Zm0-507.888 1.795 1.867 1.794-1.867-1.794-1.867-1.795 1.867Zm0-84.648 1.795 1.867 1.794-1.867-1.794-1.867-1.795 1.867Zm0-84.648 1.795 1.867 1.794-1.867-1.794-1.867-1.795 1.867Zm0-84.648 1.795 1.867 1.794-1.867-1.794-1.867-1.795 1.867Zm0-84.648 1.795 1.867 1.794-1.867-1.794-1.867-1.795 1.867Zm82.565 423.24 1.794 1.867 1.795-1.867-1.795-1.867-1.794 1.867Zm0 84.648 1.794 1.867 1.795-1.867-1.795-1.867-1.794 1.867Zm0 84.648 1.794 1.867 1.795-1.867-1.795-1.867-1.794 1.867Zm0 84.648 1.794 1.867 1.795-1.867-1.795-1.867-1.794 1.867Zm0 84.648 1.794 1.868 1.795-1.868-1.795-1.867-1.794 1.867Zm0 84.648 1.794 1.868 1.795-1.868-1.795-1.867-1.794 1.867Zm0-507.888 1.794 1.867 1.795-1.867-1.795-1.867-1.794 1.867Zm0-84.648 1.794 1.867 1.795-1.867-1.795-1.867-1.794 1.867Zm0-84.648 1.794 1.867 1.795-1.867-1.795-1.867-1.794 1.867Zm0-84.648 1.794 1.867 1.795-1.867-1.795-1.867-1.794 1.867Zm0-84.648 1.794 1.867 1.795-1.867-1.795-1.867-1.794 1.867Z" fill="url(#a)"/><defs><linearGradient id="a" x1="-71" y1="-81.799" x2="1384.35" y2="781.293" gradientUnits="userSpaceOnUse"><stop stop-color="#fff" stop-opacity=".02"/><stop offset=".21" stop-color="#fff" stop-opacity=".02"/><stop offset=".875" stop-color="#fff" stop-opacity=".1"/><stop offset="1" stop-color="#fff" stop-opacity=".02"/></linearGradient></defs></svg>