<svg width="53" height="82" fill="none" xmlns="http://www.w3.org/2000/svg"><path d="M20.95 1.367v-.005C6.57 12.445 4.292 31.714 9.65 48.229c5.748 17.72 21.898 25.717 39.541 26.522 1.423.066 1.717-2.14.282-2.205-16.704-.763-31.243-7.746-37.397-24.109C6.22 32.868 8.676 13.631 22.31 3.121a1.122 1.122 0 0 0-.013-1.77l-.027-.02a1.03 1.03 0 0 0-1.32.036Z" fill="#A8B3C1"/><path d="M20.278 1.076C5.98 13.361-.402 34.39 7.117 52.077a46.944 46.944 0 0 0 18.28 21.225c8.209 5.054 16.435 5.02 25.68 3.994 1.43-.159 1.136-2.363-.286-2.206-4.268.474-8.451 1.093-12.748.575-4.358-.525-8.59-2.466-12.285-4.742-7.382-4.544-12.99-11.91-16.584-19.69-7.24-15.676-1.39-35.082 10.645-46.727a1.18 1.18 0 0 0 1.902-.66l.34-1.75a1.119 1.119 0 0 0-1.783-1.02Z" fill="#A8B3C1"/><path d="M14.24 9.784a35.437 35.437 0 0 0-5.17 12.074c-1.86 9.216-.382 17.52 2.45 26.313 2.68 8.319 7.746 15.166 14.045 21.144 6.396 6.07 14.41 8.364 22.382 11.42a1.188 1.188 0 0 0 1.357.558l.264.076c1.348.451 2.177-1.525.833-2.062-6.893-2.755-14.107-4.525-20.174-8.993a48.142 48.142 0 0 1-14.881-18.239c-3.533-7.85-5.47-16.426-4.77-25.017a33.124 33.124 0 0 1 3.052-11.678c1.46-3.086 4.7-9.98 8.32-11.027 1.379-.399.516-2.452-.844-2.058-3.252.94-5.17 4.85-6.863 7.49Z" fill="#A8B3C1"/><path d="m49.18 77.453.041.097c-.14.533-.21 1.08-.354 1.614-.063.198-.115.4-.155.604a1.126 1.126 0 0 0 1.24 1.79l.456-.19a1.123 1.123 0 0 0 .606-1.452l-.04-.097c.14-.533.21-1.08.354-1.614.11-.41.27-.736.09-1.166l-.18-.43a1.113 1.113 0 0 0-2.058.844ZM.168 4.976A9.622 9.622 0 0 0 .93 8.18a1.123 1.123 0 0 0 1.451.607A75.629 75.629 0 0 1 7.74 6.889c-1.112.436-2.223.876-3.33 1.328-.031.01-.062.016-.095.03l-.456.19a1.113 1.113 0 0 0 .844 2.058c4.56-1.882 9.192-3.578 13.794-5.352a17.632 17.632 0 0 0-.51 5.81c.198 3.873-.252 7.982.791 11.725a1.108 1.108 0 0 0 1.451.607l.213-.109a1.118 1.118 0 0 0 .68-1.172l.053-.254a.923.923 0 0 0-.599-1.116 27.36 27.36 0 0 1-.337-4.298 24.48 24.48 0 0 0 1.275 5.198c.37.997 2.107.854 2.132-.28.05-2.345-.552-4.564-.728-6.893-.199-2.643-.02-5.3.533-7.892a9.263 9.263 0 0 0 .528-2.086 29.31 29.31 0 0 1 .672-2.053A1.121 1.121 0 0 0 23.197.885c-.13.054-.26.103-.39.156a1.095 1.095 0 0 0-1.36-.496c-.13.043-.262.082-.393.124-2.055-.531-4.563-.12-6.46.125-4.556.59-8.938 2.171-13.466 2.936a1.136 1.136 0 0 0-.96 1.246Zm21.137-.942.103-.04c.138.366.168.764.088 1.147-.024.103-.044.207-.067.31-.022.085-.04.167-.07.257A39.678 39.678 0 0 0 20.18 9.52a10.626 10.626 0 0 1 1.125-5.485ZM8.01 4.486a85.43 85.43 0 0 0-5.403 1.839 5.772 5.772 0 0 1-.136-.594c1.86-.355 3.701-.79 5.539-1.245Z" fill="#A8B3C1"/></svg>